<svg width="39" height="45" viewBox="0 0 39 45" fill="none" xmlns="http://www.w3.org/2000/svg">
<path opacity="0.4" d="M19.3197 45C19.0411 45 18.7625 44.936 18.511 44.8058L10.4086 40.6116C8.10943 39.4202 6.3109 38.0832 4.9065 36.5255C1.83268 33.1189 0.122489 28.746 0.0953067 24.2098L8.44157e-05 9.27959C-0.0111557 7.55645 1.10104 6.00981 2.76366 5.42734L17.6412 0.240273C18.5246 -0.0752312 19.51 -0.0796439 20.4092 0.224829L35.3434 5.23539C37.0151 5.79359 38.1454 7.3292 38.1545 9.05013L38.2496 23.9914C38.2791 28.521 36.6278 32.9115 33.6015 36.3556C32.213 37.9353 30.4303 39.2922 28.1538 40.5057L20.1238 44.7948C19.8747 44.9294 19.5983 44.9978 19.3197 45Z" fill="#9C27B0"/>
<path d="M17.592 27.7226C17.1571 27.7248 16.7222 27.5681 16.3869 27.246L12.0741 23.0981C11.4081 22.4538 11.4013 21.408 12.0605 20.7594C12.7196 20.1085 13.7956 20.1019 14.4638 20.7439L17.5671 23.7269L25.144 16.2563C25.8054 15.6054 26.8814 15.5988 27.5473 16.2408C28.2156 16.8851 28.2224 17.9331 27.5632 18.5795L18.7902 27.2305C18.4595 27.5571 18.0269 27.7203 17.592 27.7226Z" fill="#9C27B0"/>
</svg>
