<svg width="46" height="45" viewBox="0 0 46 45" fill="none" xmlns="http://www.w3.org/2000/svg">
<path opacity="0.4" d="M0 20.6348C0.113647 25.9489 0.43186 35.0384 0.477319 36.0408C0.638698 38.1842 1.45923 40.3503 2.73663 41.8777C4.51407 44.0211 6.70292 44.978 9.75548 44.978C13.9741 45.0007 18.6245 45.0007 23.1409 45.0007C27.6754 45.0007 32.0758 45.0007 35.7921 44.978C38.8014 44.978 41.0585 43.9961 42.8132 41.8777C44.0906 40.3503 44.9111 38.1614 45.027 36.0408C45.0725 35.1975 45.2998 25.3307 45.4362 20.6348H0Z" fill="#9C27B0"/>
<path d="M21.0137 30.4215V33.3627C21.0137 34.3037 21.7774 35.0674 22.7184 35.0674C23.6594 35.0674 24.4231 34.3037 24.4231 33.3627V30.4215C24.4231 29.4805 23.6594 28.7168 22.7184 28.7168C21.7774 28.7168 21.0137 29.4805 21.0137 30.4215Z" fill="#9C27B0"/>
<path d="M25.6525 0C29.0642 0 31.8622 2.56616 32.2895 5.86647H36.7831C41.554 5.86647 45.4362 9.74866 45.4362 14.5218V22.3999C45.4362 22.9727 45.1475 23.5068 44.6725 23.8227C39.9857 26.9253 34.4215 28.9914 28.5846 29.7983C28.505 29.8097 28.4277 29.8142 28.3504 29.8142C27.5799 29.8142 26.8912 29.2937 26.698 28.53C26.2389 26.7207 24.5955 25.4547 22.7067 25.4547C20.7929 25.4547 19.1677 26.6935 18.6632 28.5391C18.4359 29.3642 17.6426 29.8915 16.7834 29.7779C10.9851 28.9687 5.4437 26.9117 0.765983 23.8227C0.286391 23.5091 0 22.9727 0 22.3999V14.5218C0 9.74866 3.89128 5.86647 8.67583 5.86647H13.1467C13.574 2.56616 16.3698 0 19.7837 0H25.6525ZM25.6525 3.40942H19.7837C18.254 3.40942 16.9766 4.45497 16.5948 5.86647H28.8391C28.4573 4.45497 27.1799 3.40942 25.6525 3.40942Z" fill="#9C27B0"/>
</svg>
