<svg width="41" height="45" viewBox="0 0 41 45" fill="none" xmlns="http://www.w3.org/2000/svg">
<path opacity="0.4" d="M29.6797 0H10.8225C3.9825 0 0 4.005 0 10.8675V34.11C0 41.085 3.9825 45 10.8225 45H29.6797C36.63 45 40.5 41.085 40.5 34.11V10.8675C40.5 4.005 36.63 0 29.6797 0Z" fill="#9C27B0"/>
<path d="M11.4302 30.9154H29.0702C29.9679 31.0054 30.6452 31.7704 30.6452 32.6929C30.6452 33.5906 29.9679 34.3579 29.0702 34.4479H11.4302C10.7552 34.5379 10.1027 34.2004 9.74266 33.6379C9.38266 33.0529 9.38266 32.3104 9.74266 31.7479C10.1027 31.1629 10.7552 30.8479 11.4302 30.9154ZM29.0702 20.6531C30.0377 20.6531 30.8252 21.4429 30.8252 22.4104C30.8252 23.3779 30.0377 24.1654 29.0702 24.1654H11.4302C10.4604 24.1654 9.67516 23.3779 9.67516 22.4104C9.67516 21.4429 10.4604 20.6531 11.4302 20.6531H29.0702ZM18.1554 10.4629C19.1252 10.4629 19.9127 11.2504 19.9127 12.2156C19.9127 13.2079 19.1252 13.9954 18.1554 13.9954H11.4302C10.4604 13.9954 9.67516 13.2079 9.67516 12.2404C9.67516 11.2729 10.4604 10.4854 11.4302 10.4854V10.4629H18.1554Z" fill="#9C27B0"/>
</svg>
