<svg width="45" height="45" viewBox="0 0 45 45" fill="none" xmlns="http://www.w3.org/2000/svg">
<path opacity="0.4" d="M45 22.5C45 34.929 34.9268 45 22.5 45C10.0733 45 0 34.929 0 22.5C0 10.0755 10.0733 0 22.5 0C34.9268 0 45 10.0755 45 22.5Z" fill="#9C27B0"/>
<path d="M30.5402 31.0823C30.2455 31.0823 29.9485 31.0058 29.6762 30.846L20.8427 25.5765C20.3342 25.2705 20.0215 24.7193 20.0215 24.1253V12.7695C20.0215 11.838 20.7775 11.082 21.709 11.082C22.6405 11.082 23.3965 11.838 23.3965 12.7695V23.1668L31.4065 27.9435C32.2052 28.4228 32.4685 29.4578 31.9915 30.2588C31.6742 30.7875 31.114 31.0823 30.5402 31.0823Z" fill="#9C27B0"/>
</svg>
