<svg width="46" height="45" viewBox="0 0 46 45" fill="none" xmlns="http://www.w3.org/2000/svg">
<path opacity="0.4" d="M22.4999 45C20.7695 45 19.0414 44.343 17.7205 43.0311L16.0779 41.3885C15.4411 40.754 14.5883 40.4029 13.6838 40.4007H11.3729C7.63761 40.4007 4.59765 37.3607 4.59765 33.6255V31.3123C4.5954 30.41 4.24438 29.5572 3.60758 28.9159L1.99197 27.3025C-0.654209 24.6721 -0.66546 20.3721 1.96722 17.7236L3.60983 16.0788C4.24437 15.442 4.5954 14.5892 4.59765 13.6846V11.376C4.59765 7.63845 7.63761 4.5985 11.3729 4.5985H13.686C14.5883 4.5985 15.4389 4.24747 16.0802 3.60618L17.698 1.99282C20.3285 -0.653362 24.6263 -0.666863 27.2769 1.96807L28.9196 3.61068C29.5586 4.24747 30.4092 4.5985 31.3115 4.5985H33.6246C37.3599 4.5985 40.3998 7.63845 40.3998 11.376V13.6869C40.4021 14.5892 40.7531 15.442 41.3899 16.0833L43.0055 17.6989C44.2859 18.9725 44.9947 20.6691 45.0014 22.4805C45.0059 24.2806 44.3129 25.975 43.0505 27.2553C43.028 27.2778 43.0078 27.3025 42.9853 27.3228L41.3877 28.9204C40.7531 29.5572 40.4021 30.41 40.3998 31.3146V33.6255C40.3998 37.3607 37.3599 40.4007 33.6246 40.4007H31.3115C30.4092 40.4029 29.5563 40.754 28.9173 41.3908L27.2994 43.0064C25.9809 44.334 24.2392 45 22.4999 45Z" fill="#9C27B0"/>
<path d="M26.8705 26.9095C27.4466 26.3335 28.3106 26.167 29.0397 26.473C29.2534 26.545 29.4919 26.698 29.69 26.8938C30.05 27.2538 30.2457 27.7466 30.2457 28.2866C30.2457 28.8244 30.05 29.3195 29.6922 29.6772C29.2894 30.053 28.7989 30.2555 28.2994 30.2555C27.7728 30.2555 27.3003 30.0643 26.893 29.6862C26.7153 29.5085 26.5802 29.3037 26.4677 29.0517C26.3462 28.7772 26.3305 28.4847 26.3305 28.2866C26.3305 28.0886 26.3462 27.7939 26.4677 27.5193C26.5825 27.2651 26.7513 27.0491 26.8705 26.9095ZM26.8968 15.3255C27.6641 14.5605 28.913 14.5605 29.6803 15.3255C30.4476 16.0951 30.4476 17.3417 29.6803 18.1112L18.1145 29.677C17.7432 30.0483 17.2504 30.253 16.7239 30.253C16.1974 30.253 15.7046 30.0483 15.3311 29.677C14.5638 28.9075 14.5638 27.6586 15.3311 26.8913L26.8968 15.3255ZM15.991 14.9005C16.6706 14.59 17.5729 14.7722 18.1084 15.3348C18.2997 15.526 18.4459 15.7353 18.5427 15.9535C18.6485 16.1876 18.7025 16.4531 18.7025 16.7209C18.7025 17.2564 18.4887 17.7537 18.0972 18.1182C17.7259 18.4895 17.2444 18.6897 16.7111 18.6897C16.2115 18.6897 15.721 18.485 15.3272 18.1159C14.9537 17.7447 14.7422 17.2361 14.7422 16.7209C14.7422 16.2303 14.9492 15.7263 15.3137 15.337C15.514 15.1345 15.7525 14.9815 15.991 14.9005Z" fill="#9C27B0"/>
</svg>
