<svg width="84" height="84" viewBox="0 0 84 84" fill="none" xmlns="http://www.w3.org/2000/svg">
<path d="M42.0007 0.333984C65.0423 0.333984 83.6673 19.0007 83.6673 42.0007C83.6673 65.0423 65.0423 83.6673 42.0007 83.6673C19.0007 83.6673 0.333984 65.0423 0.333984 42.0007C0.333984 19.0007 19.0007 0.333984 42.0007 0.333984ZM40.5423 20.8757C38.834 20.8757 37.4173 22.2507 37.4173 24.0007V45.0423C37.4173 46.1257 38.0007 47.1257 38.959 47.709L55.2923 57.459C55.7923 57.7507 56.334 57.9173 56.9173 57.9173C57.959 57.9173 59.0007 57.3757 59.584 56.3757C60.459 54.9173 60.0007 53.0007 58.5007 52.084L49.5275 46.7404C45.8937 44.5765 43.6673 40.6594 43.6673 36.4301V24.0007C43.6673 22.2507 42.2507 20.8757 40.5423 20.8757Z" fill="url(#paint0_linear_1_2362)"/>
<defs>
<linearGradient id="paint0_linear_1_2362" x1="0.333984" y1="0.333984" x2="95.5226" y2="32.1618" gradientUnits="userSpaceOnUse">
<stop stop-color="#AF53FF"/>
<stop offset="1" stop-color="#6EACFE"/>
</linearGradient>
</defs>
</svg>
