<svg width="92" height="68" viewBox="0 0 92 68" fill="none" xmlns="http://www.w3.org/2000/svg">
<path d="M45.787 44.5811C60.0836 44.5811 72.2909 46.8476 72.2909 55.9175C72.2909 64.9836 60.1619 67.3327 45.787 67.3327C31.4904 67.3327 19.2831 65.0662 19.2831 56C19.2831 46.9302 31.412 44.5811 45.787 44.5811ZM68.6455 39.1197C74.1112 39.0184 79.9872 39.7689 82.1586 40.3017C86.7587 41.2061 89.7844 43.0523 91.038 45.7354C92.0976 47.9381 92.0976 50.4936 91.038 52.6926C89.1204 56.8541 82.9383 58.19 80.5357 58.5353C80.0395 58.6103 79.6403 58.1788 79.6925 57.6797C80.92 46.1482 71.1563 40.6807 68.6306 39.4236C68.5224 39.3673 68.5 39.281 68.5112 39.2285C68.5186 39.191 68.5634 39.1309 68.6455 39.1197ZM23.356 39.1212C23.4381 39.1324 23.4791 39.1925 23.4866 39.2262C23.4978 39.2825 23.4754 39.3651 23.3709 39.4251C20.8414 40.6822 11.0778 46.1497 12.3053 57.6774C12.3575 58.1803 11.962 58.6081 11.4658 58.5368C9.06315 58.1915 2.88114 56.8556 0.963484 52.6941C-0.099807 50.4913 -0.099807 47.9396 0.963484 45.7369C2.21705 43.0538 5.23903 41.2076 9.83916 40.2995C12.0142 39.7704 17.8866 39.0199 23.356 39.1212ZM45.787 0.666016C55.5207 0.666016 63.3257 8.5088 63.3257 18.3029C63.3257 28.0932 55.5207 35.9435 45.787 35.9435C36.0532 35.9435 28.2483 28.0932 28.2483 18.3029C28.2483 8.5088 36.0532 0.666016 45.787 0.666016ZM69.5968 3.60725C78.9986 3.60725 86.3819 12.5045 83.8673 22.4149C82.1698 29.0869 76.0251 33.5186 69.179 33.3385C68.4925 33.3198 67.8172 33.256 67.1643 33.1434C66.6905 33.0608 66.4517 32.5242 66.7204 32.1265C69.332 28.2614 70.8206 23.612 70.8206 18.6211C70.8206 13.4126 69.1939 8.55683 66.3697 4.5754C66.2801 4.45157 66.213 4.26019 66.3025 4.11759C66.3771 4.00126 66.5152 3.94122 66.6457 3.9112C67.5971 3.71607 68.5746 3.60725 69.5968 3.60725ZM22.399 3.60687C23.4213 3.60687 24.3988 3.7157 25.3539 3.91083C25.4807 3.94085 25.6225 4.00464 25.6971 4.11722C25.7829 4.25981 25.7195 4.45119 25.63 4.57502C22.8057 8.55646 21.1791 13.4122 21.1791 18.6207C21.1791 23.6116 22.6677 28.261 25.2793 32.1261C25.5479 32.5239 25.3091 33.0605 24.8353 33.143C24.1787 33.2594 23.5071 33.3194 22.8206 33.3382C15.9745 33.5183 9.82984 29.0865 8.1323 22.4145C5.61398 12.5041 12.9973 3.60687 22.399 3.60687Z" fill="url(#paint0_linear_1_2369)"/>
<defs>
<linearGradient id="paint0_linear_1_2369" x1="0.166016" y1="0.666016" x2="96.2668" y2="44.8486" gradientUnits="userSpaceOnUse">
<stop stop-color="#AF53FF"/>
<stop offset="1" stop-color="#6EACFE"/>
</linearGradient>
</defs>
</svg>
