<svg width="39" height="39" viewBox="0 0 39 39" fill="none" xmlns="http://www.w3.org/2000/svg">
<circle cx="19.5" cy="20.5" r="17" fill="#F3F3F3" stroke="url(#paint0_linear_1_516)"/>
<path d="M19.6002 31.5325C25.4848 31.5325 30.2552 26.7621 30.2552 20.8776C30.2552 14.993 25.4848 10.2227 19.6002 10.2227C13.7157 10.2227 8.94531 14.993 8.94531 20.8776C8.94531 26.7621 13.7157 31.5325 19.6002 31.5325Z" fill="#9C27B0" fill-opacity="0.5"/>
<path d="M13.5129 20.6442C13.5129 20.6442 18.7908 18.3988 20.6213 17.6082C21.323 17.2919 23.7026 16.2799 23.7026 16.2799C23.7026 16.2799 24.8009 15.8371 24.7094 16.9124C24.6789 17.3552 24.4348 18.9048 24.1908 20.581C23.8246 22.9529 23.428 25.5462 23.428 25.5462C23.428 25.5462 23.367 26.2736 22.8484 26.4001C22.3298 26.5266 21.4755 25.9574 21.323 25.8308C21.2009 25.736 19.0349 24.3128 18.2417 23.617C18.0281 23.4273 17.784 23.0478 18.2721 22.605C19.3705 21.5614 20.6823 20.2647 21.4755 19.4425C21.8416 19.0629 22.2077 18.1774 20.6823 19.2527C18.5162 20.8024 16.3807 22.2571 16.3807 22.2571C16.3807 22.2571 15.8925 22.5734 14.9773 22.2887C14.062 22.0041 12.9942 21.6246 12.9942 21.6246C12.9942 21.6246 12.2621 21.1502 13.5129 20.6442Z" fill="white"/>
<defs>
<linearGradient id="paint0_linear_1_516" x1="0.394759" y1="13.3104" x2="38.8771" y2="15.5594" gradientUnits="userSpaceOnUse">
<stop stop-color="#9C27B0"/>
<stop offset="1" stop-color="#7F328C"/>
</linearGradient>
</defs>
</svg>
