<svg width="39" height="39" viewBox="0 0 39 39" fill="none" xmlns="http://www.w3.org/2000/svg">
<circle cx="19.5" cy="19.5" r="17" fill="#F3F3F3" stroke="url(#paint0_linear_1_523)"/>
<path d="M23.4788 15.3248C23.9 15.3248 24.3114 15.3598 24.7173 15.4099C23.9835 12.1875 20.599 9.75012 16.5293 9.75012C11.9228 9.75012 8.18939 12.8705 8.18939 16.7185C8.18939 18.9371 9.43765 20.9054 11.3738 22.179L10.2743 24.3838L13.2695 23.0974C13.9118 23.3262 14.5792 23.5145 15.2921 23.6022C15.1947 23.1769 15.1393 22.741 15.1393 22.2935C15.1393 18.451 18.8795 15.3248 23.4788 15.3248ZM19.3092 12.8857C19.8848 12.8857 20.3515 13.3539 20.3515 13.9311C20.3515 14.5084 19.8848 14.9763 19.3092 14.9763C18.7333 14.9763 18.2667 14.5084 18.2667 13.9311C18.2667 13.3539 18.7333 12.8857 19.3092 12.8857ZM13.7492 14.9763C13.1736 14.9763 12.7068 14.5084 12.7068 13.9311C12.7068 13.3539 13.1736 12.8857 13.7492 12.8857C14.3249 12.8857 14.7917 13.3539 14.7917 13.9311C14.7917 14.5084 14.3248 14.9763 13.7492 14.9763Z" fill="#9C27B0" fill-opacity="0.5"/>
<path d="M30.4287 22.2934C30.4287 19.2145 27.3164 16.7185 23.4788 16.7185C19.6412 16.7185 16.5293 19.2145 16.5293 22.2934C16.5293 25.3721 19.6412 27.8682 23.4788 27.8682C24.11 27.8682 24.7103 27.779 25.2928 27.6523L29.0388 29.2618L27.7432 26.6656C29.3668 25.6452 30.4287 24.076 30.4287 22.2934ZM21.394 21.945C20.8184 21.945 20.3515 21.4769 20.3515 20.8995C20.3515 20.3223 20.8183 19.8544 21.394 19.8544C21.9698 19.8544 22.4364 20.3225 22.4364 20.8995C22.4364 21.477 21.9697 21.945 21.394 21.945ZM25.5638 21.945C24.9879 21.945 24.5214 21.4769 24.5214 20.8995C24.5214 20.3223 24.9878 19.8544 25.5638 19.8544C26.1396 19.8544 26.6063 20.3225 26.6063 20.8995C26.6063 21.477 26.1396 21.945 25.5638 21.945Z" fill="#9C27B0" fill-opacity="0.5"/>
<defs>
<linearGradient id="paint0_linear_1_523" x1="0.394759" y1="12.3104" x2="38.8771" y2="14.5594" gradientUnits="userSpaceOnUse">
<stop stop-color="#9C27B0"/>
<stop offset="1" stop-color="#7F328C"/>
</linearGradient>
</defs>
</svg>
