<svg width="84" height="84" viewBox="0 0 84 84" fill="none" xmlns="http://www.w3.org/2000/svg">
<path d="M61.4568 0.335938C75.6276 0.335938 83.6276 8.37344 83.6693 22.5443V61.4609C83.6693 75.6276 75.6276 83.6693 61.4568 83.6693H22.5443C8.37344 83.6693 0.335938 75.6276 0.335938 61.4609V22.5443C0.335938 8.37344 8.37344 0.335938 22.5443 0.335938H61.4568ZM44.0859 17.5443C42.9151 16.8359 41.4984 16.8359 40.3776 17.5443C39.2484 18.2484 38.6276 19.5443 38.7484 20.8359V63.2943C38.9609 65.0859 40.4568 66.4193 42.2068 66.4193C44.0026 66.4193 45.4984 65.0859 45.6651 63.2943V20.8359C45.8318 19.5443 45.2109 18.2484 44.0859 17.5443ZM24.6276 31.2109C23.5026 30.5026 22.0818 30.5026 20.9609 31.2109C19.8318 31.9193 19.2109 33.2068 19.3359 34.5026V63.2943C19.4984 65.0859 20.9984 66.4193 22.7901 66.4193C24.5859 66.4193 26.0818 65.0859 26.2484 63.2943V34.5026C26.3776 33.2068 25.7484 31.9193 24.6276 31.2109ZM63.2068 46.3359C62.0859 45.6276 60.6693 45.6276 59.5026 46.3359C58.3734 47.0443 57.7526 48.2901 57.9193 49.6276V63.2943C58.0859 65.0859 59.5818 66.4193 61.3776 66.4193C63.1276 66.4193 64.6234 65.0859 64.8359 63.2943V49.6276C64.9568 48.2901 64.3359 47.0443 63.2068 46.3359Z" fill="url(#paint0_linear_1_2350)"/>
<defs>
<linearGradient id="paint0_linear_1_2350" x1="0.335937" y1="0.335937" x2="95.5246" y2="32.1637" gradientUnits="userSpaceOnUse">
<stop stop-color="#AF53FF"/>
<stop offset="1" stop-color="#6EACFE"/>
</linearGradient>
</defs>
</svg>
