<svg width="84" height="76" viewBox="0 0 84 76" fill="none" xmlns="http://www.w3.org/2000/svg">
<path d="M64.0839 41.4557C68.5153 41.4557 72.5791 41.6766 75.4095 42.0916C76.153 42.2006 76.8951 42.3453 77.6283 42.5099C78.4489 42.6942 79.5075 42.9522 80.0003 43.1483C81.2389 43.6828 82.2873 44.6479 82.9554 45.8554C83.4333 46.8205 83.6673 47.84 83.6673 48.904C83.6234 50.0126 82.9066 52.0961 82.5701 52.9177C80.4782 58.3319 73.6123 68.6803 69.4235 72.6494C68.7554 73.3224 67.9459 74.0499 67.7558 74.243C66.7025 75.0645 65.42 75.5 64.04 75.5C62.7965 75.5 61.5579 75.114 60.5583 74.337C60.0389 73.9658 59.281 73.2272 58.9344 72.881L58.7491 72.6939C55.339 69.5052 50.5801 62.5795 47.6802 57.2709C46.4293 54.981 44.8413 51.8823 44.4872 49.297V49.297L44.4516 48.904V48.711C44.4516 46.4839 45.6902 44.4054 47.6944 43.3413C47.8242 43.2728 47.9831 43.205 48.1627 43.1385C50.5901 42.2397 53.4105 41.9447 55.9913 41.7457C58.3616 41.5629 61.1426 41.4557 64.0839 41.4557ZM19.9404 41.7105C21.9372 41.7105 23.5809 43.2339 23.8055 45.1989L23.8317 45.6598L24.8996 64.7378C24.8996 67.5191 22.6809 69.7708 19.9404 69.7708C17.3711 69.7708 15.2562 67.7918 15.0019 65.2527L14.9762 64.7378L16.049 45.6598C16.049 43.4773 17.7899 41.7105 19.9404 41.7105ZM19.9662 0.5C21.1999 0.5 22.4385 0.886015 23.4431 1.65804C23.8758 1.97044 24.4743 2.53609 24.8623 2.91639L25.2522 3.30603C28.6577 6.4978 33.4173 13.4185 36.3185 18.7253C37.5713 21.017 39.1587 24.1197 39.514 26.7073V26.7073L39.5497 27.1004V27.2934C39.5497 29.5154 38.3062 31.594 36.3069 32.658C36.1772 32.727 36.0183 32.7953 35.8388 32.8621C33.4129 33.7649 30.5908 34.0546 28.0101 34.2536C25.6397 34.4363 22.8587 34.5435 19.9174 34.5435C15.486 34.5435 11.4222 34.3227 8.59177 33.9077C7.84828 33.7986 7.10613 33.6545 6.37296 33.4898C5.55256 33.3055 4.49419 33.0472 4.00101 32.851C2.76241 32.3215 1.71399 31.3515 1.04593 30.1439C0.56805 29.1789 0.333984 28.1594 0.333984 27.1004C0.377872 25.9869 1.0947 23.9083 1.42629 23.0868C3.52312 17.6678 10.3842 7.31959 14.5778 3.35552C15.2459 2.67752 16.0554 1.95003 16.2455 1.75702C17.294 0.935504 18.5813 0.5 19.9662 0.5ZM64.0619 6.22917C66.6311 6.22917 68.7418 8.20829 68.9956 10.7474L69.0212 11.2623L67.9532 30.3408C67.9532 32.5233 66.2124 34.2901 64.0619 34.2901C62.065 34.2901 60.4214 32.7667 60.1967 30.8016L60.1706 30.3408L59.0978 11.2623C59.0978 8.48097 61.3214 6.22917 64.0619 6.22917Z" fill="url(#paint0_linear_1_2357)"/>
<defs>
<linearGradient id="paint0_linear_1_2357" x1="0.333984" y1="0.5" x2="93.3291" y2="35.0493" gradientUnits="userSpaceOnUse">
<stop stop-color="#AF53FF"/>
<stop offset="1" stop-color="#6EACFE"/>
</linearGradient>
</defs>
</svg>
