<svg width="28" height="28" viewBox="0 0 28 28" fill="none" xmlns="http://www.w3.org/2000/svg">
<path d="M7.93904 4.69224C8.58171 4.86751 9.22438 4.98436 9.86705 5.15963C10.5097 5.33491 11.1524 5.45176 11.7951 5.62703C11.9703 5.68546 12.0288 5.62703 12.0872 5.45176C12.3209 4.45854 12.5546 3.52375 12.7883 2.53053C12.8467 2.35525 12.9051 2.29683 13.0804 2.35525C13.6646 2.53053 14.1905 2.64738 14.7747 2.76422C14.95 2.82265 14.95 2.88107 14.8916 2.99792C14.6579 3.93272 14.4242 4.92594 14.1905 5.86073C14.1905 5.91915 14.1905 5.97758 14.132 6.09443C14.5994 6.21128 15.1253 6.32813 15.5927 6.44498C15.6511 6.44498 15.7095 6.32813 15.7679 6.2697C15.9432 5.51018 16.1185 4.80909 16.3522 4.04957C16.4106 3.81587 16.469 3.58217 16.5275 3.34847C16.5275 3.23162 16.5859 3.1732 16.7027 3.23162C17.287 3.4069 17.8712 3.52374 18.5139 3.69902C18.5723 3.69902 18.5723 3.75744 18.6307 3.75744C18.4555 4.51696 18.2802 5.21806 18.1049 5.91915C18.0465 6.21128 17.9881 6.5034 17.8712 6.79552C17.8128 6.9708 17.8712 7.02922 18.0465 7.08765C18.6892 7.37977 19.3318 7.67189 19.9745 7.96402C20.5588 8.31456 21.0846 8.78196 21.4935 9.36621C22.0194 10.2426 22.0778 11.1774 21.8441 12.1122C21.6688 12.7548 21.4351 13.3391 20.9677 13.8065C20.6172 14.157 20.1498 14.3907 19.6824 14.566C19.624 14.566 19.5655 14.6244 19.4487 14.6244C19.6824 14.7997 19.9161 14.9165 20.1498 15.0918C20.8509 15.6176 21.3183 16.2603 21.552 17.0783C21.6688 17.7209 21.6104 18.422 21.4351 19.0647C21.2014 19.8826 20.9093 20.5837 20.3835 21.2264C19.7408 21.9859 18.9229 22.3949 17.9881 22.5117C16.7612 22.687 15.5927 22.5702 14.4242 22.3949C14.2489 22.3365 14.132 22.3949 14.0736 22.5702C13.8399 23.505 13.6062 24.4982 13.3725 25.433C13.3141 25.6667 13.3141 25.7251 13.022 25.6082C12.4962 25.4914 11.9119 25.3161 11.3861 25.1993C11.2108 25.1409 11.2108 25.0824 11.2692 24.9656C11.5029 23.9724 11.7366 22.9791 12.0288 22.0443C12.0288 21.9275 12.0872 21.8691 11.9703 21.8106C11.5029 21.6938 11.0355 21.577 10.5097 21.4601C10.3929 21.9859 10.2176 22.5117 10.1007 23.0376C9.9839 23.5634 9.80863 24.0892 9.69178 24.615C9.63335 24.7319 9.63335 24.7903 9.45808 24.7319C8.87383 24.5566 8.28959 24.4398 7.70534 24.3229C7.53007 24.2645 7.53007 24.2061 7.58849 24.0892C7.82219 23.096 8.05589 22.1028 8.34801 21.168C8.34801 21.1096 8.40643 21.0511 8.40643 20.9343C7.06267 20.5837 5.7189 20.2332 4.31671 19.8826C4.43356 19.6489 4.49199 19.4737 4.60883 19.24C4.84253 18.7141 5.07623 18.1883 5.25151 17.7209C5.30993 17.5457 5.36835 17.5457 5.54363 17.5457C5.9526 17.6625 6.42 17.7794 6.82897 17.8378C7.29637 17.9546 7.64691 17.7209 7.70534 17.312C8.46486 14.3323 9.22438 11.3526 9.92548 8.31456C10.0423 7.84717 9.7502 7.32134 9.22438 7.14607C8.69856 6.9708 8.17274 6.85395 7.70534 6.7371C7.58849 6.7371 7.53007 6.67867 7.58849 6.56182C7.76376 5.91915 7.93904 5.21806 8.11431 4.57539C7.88061 4.75066 7.88061 4.75066 7.93904 4.69224ZM10.9187 19.1231C10.9771 19.1231 11.0355 19.1815 11.0355 19.1815C11.9703 19.4152 12.9636 19.7074 13.9568 19.7658C14.6579 19.8242 15.3005 19.8242 15.9432 19.5905C17.0533 19.24 17.5207 17.7794 16.878 16.8446C16.5859 16.3772 16.1185 16.085 15.6511 15.7929C14.5994 15.2087 13.3725 14.975 12.204 14.7413C12.0288 14.6828 12.0288 14.7413 11.9703 14.9165C11.8535 15.5008 11.6782 16.0266 11.5614 16.6109C11.3277 17.4288 11.1524 18.2467 10.9187 19.1231ZM15.8264 13.1638C15.9432 13.1638 16.2353 13.1054 16.469 13.047C17.5791 12.8133 18.1633 11.5279 17.5791 10.5347C17.287 10.0089 16.7612 9.65833 16.2353 9.42463C15.4174 9.07408 14.5994 8.89881 13.7231 8.66511C13.5478 8.60669 13.4894 8.66511 13.431 8.84038C13.1388 10.0673 12.8467 11.2358 12.4962 12.4627C12.4377 12.5796 12.4962 12.638 12.613 12.6964C12.8467 12.7548 13.022 12.8133 13.2557 12.8717C14.132 12.9885 14.8916 13.1638 15.8264 13.1638Z" fill="#F5B300"/>
</svg>
