<svg width="28" height="28" viewBox="0 0 28 28" fill="none" xmlns="http://www.w3.org/2000/svg">
<path d="M14.1462 2.33334V10.9223C14.1462 10.9587 14.1097 10.9952 14.0732 10.9952C13.818 11.1067 13.5993 11.2171 13.344 11.3275C13.0159 11.4744 12.6513 11.6223 12.3232 11.8067L11.12 12.3588L10.1356 12.8015L8.93238 13.3547C8.60424 13.5026 8.2761 13.6495 7.9115 13.8339C7.65628 13.9443 7.3646 14.0922 7.10938 14.2026C7.07292 14.2026 7.07292 14.2391 7.03646 14.2026H7C7.10938 14.0182 7.21876 13.8703 7.32814 13.687C7.9115 12.6911 8.53132 11.6963 9.11468 10.7004C9.7345 9.63263 10.3908 8.56279 11.0106 7.49399C11.594 6.49916 12.1773 5.50432 12.7607 4.54594C13.1982 3.80737 13.6357 3.10838 14.0368 2.3698C14.1097 2.3698 14.1097 2.33334 14.1462 2.33334C14.1097 2.33334 14.1462 2.33334 14.1462 2.33334V2.33334Z" fill="#8C8C8C"/>
<path d="M21.2194 14.2027C20.6725 14.5714 20.0891 14.9027 19.5422 15.234C17.7557 16.3038 16.0056 17.3361 14.219 18.4049C14.1826 18.4049 14.1826 18.4414 14.1461 18.4414C14.1097 18.4414 14.1097 18.4049 14.1097 18.4049V10.9952C14.1097 10.9588 14.1461 10.9588 14.1826 10.9588C14.3284 11.0317 14.4743 11.1067 14.6566 11.1796C15.0941 11.4015 15.5681 11.5859 16.0056 11.8067C16.4066 11.9911 16.7712 12.1755 17.1723 12.3224C17.5734 12.5068 17.938 12.6911 18.339 12.8755C18.6672 13.0234 19.0318 13.1703 19.3599 13.3547C19.688 13.5026 20.0526 13.6495 20.3808 13.8339C20.636 13.9443 20.8912 14.0922 21.1829 14.2027C21.1829 14.1662 21.1829 14.2027 21.2194 14.2027V14.2027Z" fill="#141414"/>
<path d="M14.1462 25.6667C14.1462 25.6667 14.1097 25.6667 14.1462 25.6667C14.1097 25.6667 14.1097 25.6667 14.0733 25.6292C13.3441 24.5979 12.6513 23.602 11.9221 22.5697L9.73454 19.4737C9.0418 18.4789 8.3126 17.4841 7.61986 16.4507L7.07296 15.6767C7.07296 15.6402 7.0365 15.6402 7.0365 15.6038C7.07296 15.6038 7.07296 15.6402 7.10942 15.6402C8.09384 16.2298 9.11472 16.8194 10.0991 17.409C11.2294 18.1101 12.3961 18.7737 13.5264 19.4737C13.7087 19.5841 13.9274 19.6946 14.1097 19.805C14.1462 19.805 14.1462 19.8425 14.1462 19.879V25.6667Z" fill="#8C8C8C"/>
<path d="M7 13.8168C7 13.7804 7 13.7804 7 13.8168C7.3646 13.6324 7.7292 13.4856 8.0938 13.3012L9.51574 12.6376C9.88034 12.4532 10.2449 12.3063 10.6095 12.1219C11.12 11.8636 11.6669 11.6428 12.1773 11.3844C12.5419 11.2365 12.9065 11.0521 13.2711 10.9052C13.5263 10.7948 13.7816 10.6844 14.0368 10.5365C14.0732 10.5365 14.0732 10.5 14.1097 10.5V18.0191C14.0732 18.0566 14.0732 18.0191 14.0368 18.0191C13.9274 17.9462 13.818 17.9087 13.7451 17.8347L7.07292 13.8543C7.03646 13.8168 7 13.8168 7 13.8168ZM21.11 15.1815C21.11 15.2179 21.11 15.2179 21.0735 15.2544C18.9589 18.2774 16.8442 21.263 14.7295 24.286C14.5108 24.6173 14.292 24.9121 14.0732 25.2444V19.3827C14.5472 19.0879 15.0212 18.7931 15.4952 18.5358L21.0735 15.2179C21.0735 15.1815 21.11 15.1815 21.11 15.1815V15.1815Z" fill="#3C3C3B"/>
<path d="M14.1462 10.9587V2.37189L21.1465 14.0932C21.1829 14.1297 21.2194 14.1662 21.2194 14.2037C21.0736 14.1307 20.9277 14.0557 20.7454 13.9828C20.5631 13.9089 20.3808 13.7984 20.1985 13.7245C20.0891 13.688 19.9798 13.6141 19.8339 13.5766C19.6516 13.5036 19.4329 13.3922 19.2506 13.3193C19.1412 13.2818 19.0318 13.2088 18.9224 13.1713L18.1568 12.8401C18.0109 12.7661 17.9015 12.7296 17.7557 12.6557C17.5734 12.5817 17.3911 12.4713 17.2088 12.3973C17.0994 12.3609 16.99 12.2869 16.8807 12.2505L16.115 11.9181C15.9692 11.8452 15.8598 11.8077 15.7139 11.7338C15.5316 11.6608 15.3493 11.5494 15.167 11.4754C15.0577 11.4025 14.9118 11.365 14.8024 11.2921L14.1462 10.9598V10.9587Z" fill="#343434"/>
</svg>
