<svg width="32" height="32" viewBox="0 0 32 32" fill="none" xmlns="http://www.w3.org/2000/svg">
<rect x="0.5" y="0.5" width="31" height="31" rx="9.5" fill="white" stroke="#9C27B0"/>
<path d="M22.2605 21.0697C22.2605 21.4575 21.9757 21.778 21.6062 21.8287L21.5034 21.8357L9.59234 21.8356L12.4262 24.6912C12.7226 24.9896 12.7237 25.4746 12.4287 25.7744C12.1605 26.047 11.74 26.0727 11.4431 25.8509L11.3581 25.7769L7.22284 21.6125C7.19847 21.5874 7.17634 21.5618 7.15595 21.5349L7.22284 21.6125C7.18553 21.5749 7.1529 21.5344 7.12495 21.4916C7.11577 21.4767 7.1064 21.4612 7.09756 21.4454C7.0888 21.4307 7.08111 21.4157 7.07394 21.4005C7.06739 21.3856 7.06079 21.3704 7.05467 21.355C7.04639 21.3354 7.03938 21.3153 7.03322 21.295C7.03006 21.283 7.02666 21.2708 7.02356 21.2584C7.01757 21.2363 7.01306 21.2142 7.00951 21.1919C7.00834 21.1814 7.00684 21.1705 7.00556 21.1595C7.00215 21.1343 7.00047 21.1094 7 21.0844C7.00046 21.0795 7.00042 21.0746 7.00042 21.0697L7 21.0548C7.00047 21.0298 7.00215 21.0049 7.00502 20.9801L7.00042 21.0697C7.00042 21.028 7.00372 20.9871 7.01006 20.9471C7.01305 20.9251 7.01757 20.9029 7.02307 20.8809C7.0265 20.8693 7.02971 20.8577 7.03318 20.8461C7.03923 20.8242 7.04686 20.8024 7.0555 20.7809C7.06085 20.7691 7.06575 20.7577 7.07091 20.7465C7.07837 20.7289 7.08733 20.7112 7.09701 20.6938C7.10644 20.6782 7.1158 20.6627 7.12566 20.6476C7.13265 20.6358 7.14071 20.6242 7.14912 20.6128L7.15595 20.6046C7.17634 20.5776 7.19847 20.5521 7.22216 20.5281L7.22284 20.5268L11.3581 16.3623C11.6544 16.0639 12.1337 16.065 12.4287 16.3648C12.6969 16.6374 12.7203 17.0629 12.4997 17.3623L12.4262 17.448L9.59032 20.3037L21.5034 20.3038C21.9215 20.3038 22.2605 20.6467 22.2605 21.0697ZM24.9996 10.9303L25 10.9452C24.9995 10.9701 24.9979 10.9951 24.995 11.0199L24.9996 10.9303C24.9996 10.972 24.9963 11.0129 24.9899 11.0529C24.987 11.0747 24.9825 11.0966 24.9771 11.1183C24.9734 11.1311 24.9698 11.1441 24.9659 11.157C24.9603 11.1771 24.9534 11.1966 24.9458 11.2158C24.9397 11.2297 24.9336 11.2437 24.9272 11.2576C24.9201 11.274 24.9119 11.2902 24.903 11.3062C24.8947 11.3198 24.8866 11.3333 24.8781 11.3466C24.8701 11.3602 24.8607 11.3738 24.8509 11.3872L24.7772 11.4732L20.6419 15.6377C20.3456 15.9361 19.8663 15.935 19.5713 15.6352C19.3031 15.3626 19.2797 14.937 19.5003 14.6377L19.5738 14.552L22.4109 11.6955L10.4966 11.6962C10.0785 11.6962 9.73952 11.3533 9.73952 10.9303C9.73952 10.5425 10.0243 10.222 10.3938 10.1713L10.4966 10.1643L22.4098 10.1636L19.5738 7.30879C19.3044 7.03749 19.279 6.61203 19.4982 6.31167L19.5713 6.22559C19.8395 5.95304 20.26 5.92733 20.5569 6.14913L20.6419 6.22309L24.7772 10.3875L24.818 10.4326C24.827 10.4432 24.8357 10.4541 24.8441 10.4651L24.7772 10.3875C24.8145 10.4251 24.8471 10.4656 24.875 10.5084C24.8842 10.5233 24.8936 10.5388 24.9024 10.5546C24.9112 10.5693 24.9189 10.5843 24.9261 10.5995C24.9326 10.6144 24.9392 10.6296 24.9453 10.645C24.9536 10.6646 24.9606 10.6847 24.9668 10.705C24.9701 10.7173 24.9736 10.73 24.9767 10.7428C24.9823 10.7633 24.9866 10.7841 24.99 10.8051C24.9916 10.8176 24.9932 10.83 24.9946 10.8424C24.9979 10.866 24.9995 10.8903 25 10.9146C24.9995 10.9199 24.9996 10.9251 24.9996 10.9303Z" fill="#9C27B0"/>
</svg>
