<svg width="115" height="24" viewBox="0 0 115 24" fill="none" xmlns="http://www.w3.org/2000/svg">
<mask id="mask0_1_237" style="mask-type:luminance" maskUnits="userSpaceOnUse" x="0" y="0" width="115" height="24">
<path d="M114.943 0H0V24H114.943V0Z" fill="white"/>
</mask>
<g mask="url(#mask0_1_237)">
<path d="M46.8966 24H2.79541C1.25058 24 0 22.7494 0 21.2046V2.7954C0 1.25057 1.25058 0 2.79541 0H46.8966V24Z" fill="url(#paint0_linear_1_237)"/>
<path d="M112.147 24H46.8965V0H112.147C113.692 0 114.942 1.25057 114.942 2.7954V21.2138C114.942 22.7494 113.692 24 112.147 24Z" fill="url(#paint1_linear_1_237)"/>
<path d="M14.3251 14.5562C14.3251 15.4666 14.1964 16.193 13.9481 16.7355C13.6999 17.2781 13.3688 17.6919 12.9734 17.9677C12.578 18.2528 12.1366 18.4367 11.6493 18.5286C11.1619 18.6206 10.6838 18.6666 10.2148 18.6666H5.55273V5.43439H10.6838C11.3458 5.43439 11.8792 5.54474 12.3022 5.76543C12.7251 5.98612 13.0562 6.27117 13.3045 6.62979C13.5527 6.98842 13.7183 7.38382 13.8102 7.816C13.9022 8.24819 13.9389 8.68037 13.9297 9.09416C13.9114 10.2988 13.6079 11.1172 13.0194 11.5493C13.4056 11.7332 13.7183 12.0643 13.9665 12.5424C14.2056 13.0298 14.3251 13.7011 14.3251 14.5562ZM11.4562 9.14014C11.4562 8.72635 11.4102 8.4137 11.3091 8.2114C11.2079 8.00911 11.0148 7.90796 10.7206 7.90796H8.06308V10.547H10.4815C10.8585 10.547 11.1068 10.4183 11.2447 10.17C11.3826 9.91255 11.4562 9.56313 11.4562 9.14014ZM11.8056 14.5746C11.8056 14.2068 11.778 13.9126 11.7137 13.7011C11.6585 13.4896 11.5757 13.3149 11.4838 13.1953C11.3918 13.0758 11.2907 12.993 11.1711 12.9562C11.0608 12.9194 10.9504 12.9011 10.8401 12.9011H8.06308V16.0735H10.6286C11.07 16.0735 11.3826 15.9539 11.5481 15.724C11.7228 15.485 11.8056 15.108 11.8056 14.5746ZM24.3849 18.6666H15.9803V5.43439H24.2378V7.99991H18.4815V10.4367H23.778V13.0022H18.4815V16.0827H24.3849V18.6666ZM34.1137 14.7585C34.1137 17.5447 32.6148 18.9424 29.6171 18.9424C28.1642 18.9424 27.0516 18.5286 26.2884 17.7103C25.5252 16.8827 25.1481 15.6137 25.1481 13.8942H27.5849C27.6033 14.2712 27.6493 14.6298 27.7137 14.9424C27.778 15.2643 27.8976 15.5309 28.0631 15.7608C28.2286 15.9907 28.4401 16.1654 28.7068 16.2942C28.9734 16.4229 29.3137 16.4873 29.7274 16.4873C30.4079 16.4873 30.8953 16.3585 31.1987 16.1103C31.5022 15.862 31.6585 15.3654 31.6585 14.6482C31.6585 14.2712 31.5941 13.9953 31.4746 13.8298C31.355 13.6643 31.1619 13.5355 30.9045 13.4344C30.6102 13.324 30.2516 13.2413 29.8378 13.1769C29.424 13.1126 28.9458 13.0114 28.4125 12.8643C27.9987 12.7447 27.6125 12.6068 27.2631 12.4505C26.9137 12.2942 26.601 12.0827 26.3343 11.7976C26.0677 11.5126 25.8654 11.1447 25.7183 10.6942C25.5711 10.2436 25.4976 9.64589 25.4976 8.91025C25.4976 8.36773 25.5619 7.89876 25.6999 7.50336C25.8286 7.10796 26.0125 6.76773 26.2332 6.49186C26.4539 6.216 26.7114 5.99531 26.9964 5.8206C27.2907 5.64589 27.5849 5.51715 27.8884 5.4252C28.1918 5.33324 28.4953 5.26888 28.7987 5.24129C29.1022 5.2137 29.3872 5.19531 29.6355 5.19531C30.4999 5.19531 31.2079 5.33324 31.7412 5.59991C32.2838 5.86658 32.6976 6.2252 33.001 6.64819C33.3045 7.08037 33.5068 7.56773 33.6079 8.10106C33.7091 8.64359 33.7642 9.17692 33.7642 9.70106H31.3734C31.3366 9.48037 31.3091 9.23209 31.2815 8.96543C31.2631 8.69876 31.1987 8.45968 31.1068 8.26658C31.024 8.09186 30.8861 7.93554 30.6746 7.79761C30.4631 7.65968 30.132 7.58612 29.6815 7.58612C29.332 7.58612 29.0378 7.6137 28.8079 7.67807C28.578 7.74244 28.4033 7.83439 28.2746 7.95393C28.1458 8.07347 28.0539 8.23899 28.0079 8.43209C27.9619 8.6252 27.9343 8.86428 27.9343 9.13094C27.9343 9.45278 28.0079 9.68267 28.1458 9.8206C28.2838 9.95853 28.5504 10.0781 28.9366 10.1792C29.3412 10.2896 29.7458 10.3815 30.1596 10.4551C30.5734 10.5286 30.9688 10.6206 31.355 10.7217C31.7412 10.8229 32.0999 10.9608 32.4309 11.1355C32.7619 11.3103 33.0562 11.5401 33.3045 11.8436C33.5527 12.147 33.755 12.5332 33.893 13.0022C34.0493 13.4712 34.1137 14.0597 34.1137 14.7585ZM43.2447 7.99071H40.2194V18.6666H37.7091V7.99071H34.6838V5.43439H43.2355V7.99071H43.2447Z" fill="white"/>
<path d="M59.468 13.8025C59.4128 14.4921 59.2932 15.145 59.1093 15.7703C58.9254 16.3956 58.6588 16.9381 58.3093 17.3979C57.9599 17.8668 57.5001 18.2346 56.9392 18.5105C56.3783 18.7864 55.6978 18.9243 54.8978 18.9243C53.9783 18.9243 53.1967 18.768 52.553 18.4553C51.9093 18.1427 51.3944 17.6829 50.9898 17.0944C50.5944 16.4967 50.3001 15.7611 50.1254 14.8875C49.9415 14.0139 49.8496 13.0208 49.8496 11.899C49.8496 10.8691 49.9507 9.93119 50.1438 9.1036C50.3369 8.27601 50.6404 7.56797 51.0542 6.97946C51.468 6.40015 51.9921 5.94958 52.6174 5.63693C53.2519 5.32429 54.0059 5.16797 54.8794 5.16797C55.7622 5.16797 56.4794 5.3059 57.0404 5.58176C57.6013 5.85762 58.0427 6.21624 58.3829 6.65762C58.7139 7.099 58.953 7.60475 59.1001 8.16567C59.2473 8.72659 59.3484 9.2967 59.4128 9.85762H57.0404C56.9852 9.56337 56.9208 9.27831 56.8473 9.01165C56.7829 8.74498 56.6725 8.5059 56.5346 8.3128C56.3967 8.11969 56.2036 7.96337 55.9645 7.84383C55.7254 7.72429 55.4036 7.66912 54.999 7.66912C54.5116 7.66912 54.0978 7.75188 53.7668 7.9082C53.4358 8.06452 53.1599 8.32199 52.9576 8.68061C52.7553 9.03923 52.6082 9.5082 52.5162 10.0875C52.4243 10.6668 52.3875 11.3841 52.3875 12.2392C52.3875 13.1036 52.4519 13.7933 52.5714 14.3358C52.6909 14.8691 52.8656 15.2921 53.0863 15.5864C53.307 15.8898 53.5737 16.0921 53.8955 16.2025C54.2174 16.3128 54.5668 16.368 54.9622 16.368C55.3668 16.368 55.6794 16.3036 55.9185 16.1841C56.1576 16.0645 56.3415 15.8898 56.4794 15.6599C56.6174 15.43 56.7277 15.1634 56.8013 14.8507C56.884 14.5381 56.9576 14.1887 57.0404 13.7933H59.468V13.8025ZM69.5369 18.6668H67.0358V12.9565H63.2657V18.6668H60.7645V5.43464H63.2657V10.3726H67.0358V5.43464H69.5369V18.6668ZM80.084 18.6668H77.4634L76.7737 15.9358H73.445L72.7645 18.6668H70.2358L73.8588 5.43464H76.3415L80.084 18.6668ZM76.1484 13.4714L75.1185 9.21394L74.0611 13.4714H76.1484ZM87.4312 18.6668L83.6059 10.6116V18.6668H81.1047V5.43464H83.5599L87.4128 13.4346V5.43464H89.8955V18.6668H87.4312ZM101.178 18.6668H99.1461V17.3243C98.999 17.6461 98.8151 17.9036 98.5944 18.1059C98.3737 18.3082 98.1346 18.4645 97.8771 18.5841C97.6197 18.7036 97.3438 18.7772 97.0679 18.8231C96.7921 18.8691 96.5162 18.8875 96.2496 18.8875C95.33 18.8875 94.5576 18.7128 93.9415 18.3542C93.3254 17.9956 92.8289 17.5082 92.4519 16.8829C92.0748 16.2576 91.8082 15.5128 91.6519 14.6576C91.4955 13.8025 91.4128 12.8829 91.4128 11.899C91.4128 7.41165 93.0955 5.16797 96.4702 5.16797C97.307 5.16797 98.0059 5.3059 98.5852 5.57257C99.1645 5.83923 99.6335 6.20705 99.9921 6.64843C100.351 7.099 100.608 7.61395 100.765 8.18406C100.921 8.76337 101.004 9.36107 101.004 9.96797H98.4473C98.4473 9.7013 98.4289 9.42544 98.3921 9.14038C98.3553 8.85532 98.2726 8.60705 98.1438 8.38636C98.0151 8.16567 97.8128 7.98176 97.5461 7.84383C97.2794 7.7059 96.9208 7.63234 96.4611 7.63234C96.0013 7.63234 95.6059 7.7059 95.2932 7.86222C94.9714 8.01854 94.7139 8.25762 94.5116 8.58866C94.3093 8.91969 94.1622 9.35188 94.0702 9.87601C93.9783 10.4002 93.9323 11.0346 93.9323 11.7703C93.9323 12.5795 93.9691 13.2783 94.0519 13.8576C94.1346 14.4369 94.2725 14.9059 94.4748 15.2553C94.6771 15.6139 94.9438 15.8714 95.2748 16.0369C95.6059 16.2025 96.0289 16.2852 96.5438 16.2852C96.8381 16.2852 97.1139 16.2392 97.3806 16.1473C97.6473 16.0553 97.8771 15.9082 98.0702 15.7151C98.2634 15.522 98.4197 15.2645 98.53 14.9611C98.6404 14.6576 98.6863 14.2898 98.6771 13.8576H96.3231V11.4208H101.197V18.6668H101.178ZM111.137 18.6668H102.751V5.43464H110.99V8.00015H105.252V10.4369H110.53V13.0025H105.252V16.0829H111.137V18.6668Z" fill="#363636"/>
</g>
<defs>
<linearGradient id="paint0_linear_1_237" x1="23.4486" y1="24" x2="23.4486" y2="0" gradientUnits="userSpaceOnUse">
<stop stop-color="#1C1C1C"/>
<stop offset="1" stop-color="#4B4B4B"/>
</linearGradient>
<linearGradient id="paint1_linear_1_237" x1="80.9198" y1="24" x2="80.9198" y2="0" gradientUnits="userSpaceOnUse">
<stop stop-color="#BCBCBC"/>
<stop offset="1" stop-color="#F3F3F3"/>
</linearGradient>
</defs>
</svg>
