<svg width="109" height="88" viewBox="0 0 109 88" fill="none" xmlns="http://www.w3.org/2000/svg">
<g clip-path="url(#clip0_1_66)">
<path d="M54.4141 88C78.7146 88 98.4141 68.3005 98.4141 44C98.4141 19.6995 78.7146 0 54.4141 0C30.1136 0 10.4141 19.6995 10.4141 44C10.4141 68.3005 30.1136 88 54.4141 88Z" fill="#3778F8"/>
<path d="M54.4122 86.5332C77.9027 86.5332 96.9455 67.4903 96.9455 43.9999C96.9455 20.5094 77.9027 1.46655 54.4122 1.46655C30.9217 1.46655 11.8789 20.5094 11.8789 43.9999C11.8789 67.4903 30.9217 86.5332 54.4122 86.5332Z" fill="#1D3869"/>
<path d="M92.6314 43.9993C92.6314 65.1077 75.5197 82.2193 54.4114 82.2193C33.3031 82.2193 16.1914 65.1077 16.1914 43.9993C16.1914 22.891 33.3031 5.7793 54.4114 5.7793C75.5197 5.7793 92.6314 22.891 92.6314 43.9993Z" stroke="#274881"/>
<path d="M54.6314 3.22656H54.1914V3.66656H54.6314V3.22656Z" fill="#3777F7"/>
<path d="M54.6314 84.334H54.1914V84.774H54.6314V84.334Z" fill="#3777F7"/>
<path d="M52.498 3.27189L52.0586 3.29492L52.0816 3.73432L52.521 3.71129L52.498 3.27189Z" fill="#3777F7"/>
<path d="M56.7441 84.266L56.3047 84.2891L56.3277 84.7285L56.7671 84.7055L56.7441 84.266Z" fill="#3777F7"/>
<path d="M50.3673 3.42691L49.9297 3.4729L49.9757 3.91049L50.4133 3.8645L50.3673 3.42691Z" fill="#3777F7"/>
<path d="M58.8477 84.0888L58.4102 84.1348L58.4561 84.5723L58.8937 84.5263L58.8477 84.0888Z" fill="#3777F7"/>
<path d="M48.251 3.69484L47.8164 3.76367L47.8852 4.19825L48.3198 4.12942L48.251 3.69484Z" fill="#3777F7"/>
<path d="M60.9385 83.8023L60.5039 83.8711L60.5727 84.3057L61.0073 84.2368L60.9385 83.8023Z" fill="#3777F7"/>
<path d="M46.1491 4.07258L45.7188 4.16406L45.8102 4.59445L46.2406 4.50297L46.1491 4.07258Z" fill="#3777F7"/>
<path d="M63.0124 83.4066L62.582 83.498L62.6735 83.9284L63.1039 83.837L63.0124 83.4066Z" fill="#3777F7"/>
<path d="M44.0735 4.55799L43.6484 4.67188L43.7623 5.09688L44.1873 4.983L44.0735 4.55799Z" fill="#3777F7"/>
<path d="M65.0656 82.9017L64.6406 83.0156L64.7545 83.4406L65.1795 83.3267L65.0656 82.9017Z" fill="#3777F7"/>
<path d="M42.0239 5.15505L41.6055 5.29102L41.7414 5.70948L42.1599 5.57351L42.0239 5.15505Z" fill="#3777F7"/>
<path d="M67.0864 82.2918L66.668 82.4277L66.8039 82.8462L67.2224 82.7102L67.0864 82.2918Z" fill="#3777F7"/>
<path d="M40.0046 5.85599L39.5938 6.01367L39.7515 6.42445L40.1623 6.26677L40.0046 5.85599Z" fill="#3777F7"/>
<path d="M69.0709 81.5747L68.6602 81.7324L68.8178 82.1432L69.2286 81.9855L69.0709 81.5747Z" fill="#3777F7"/>
<path d="M38.0309 6.66283L37.6289 6.8418L37.8079 7.24376L38.2098 7.06479L38.0309 6.66283Z" fill="#3777F7"/>
<path d="M71.0192 80.7566L70.6172 80.9355L70.7962 81.3375L71.1981 81.1586L71.0192 80.7566Z" fill="#3777F7"/>
<path d="M36.0991 7.57173L35.707 7.77148L35.9068 8.16353L36.2988 7.96377L36.0991 7.57173Z" fill="#3777F7"/>
<path d="M72.9194 79.8373L72.5273 80.0371L72.7271 80.4292L73.1191 80.2294L72.9194 79.8373Z" fill="#3777F7"/>
<path d="M34.217 8.57907L33.8359 8.79907L34.0559 9.18012L34.437 8.96012L34.217 8.57907Z" fill="#3777F7"/>
<path d="M74.7717 78.8191L74.3906 79.0391L74.6106 79.4201L74.9917 79.2001L74.7717 78.8191Z" fill="#3777F7"/>
<path d="M32.3885 9.68419L32.0195 9.92383L32.2592 10.2928L32.6282 10.0532L32.3885 9.68419Z" fill="#3777F7"/>
<path d="M76.5643 77.7057L76.1953 77.9453L76.4349 78.3143L76.8039 78.0747L76.5643 77.7057Z" fill="#3777F7"/>
<path d="M30.6255 10.8842L30.2695 11.1428L30.5281 11.4988L30.8841 11.2402L30.6255 10.8842Z" fill="#3777F7"/>
<path d="M78.2974 76.5011L77.9414 76.7598L78.2 77.1157L78.556 76.8571L78.2974 76.5011Z" fill="#3777F7"/>
<path d="M28.9239 12.1745L28.582 12.4514L28.8589 12.7934L29.2008 12.5165L28.9239 12.1745Z" fill="#3777F7"/>
<path d="M79.9669 75.2055L79.625 75.4824L79.9019 75.8244L80.2438 75.5475L79.9669 75.2055Z" fill="#3777F7"/>
<path d="M27.2918 13.5513L26.9648 13.8457L27.2593 14.1727L27.5863 13.8783L27.2918 13.5513Z" fill="#3777F7"/>
<path d="M81.5653 73.8267L81.2383 74.1211L81.5327 74.4481L81.8597 74.1537L81.5653 73.8267Z" fill="#3777F7"/>
<path d="M25.7369 15.0131L25.4258 15.3242L25.7369 15.6353L26.048 15.3242L25.7369 15.0131Z" fill="#3777F7"/>
<path d="M83.0885 72.3647L82.7773 72.6758L83.0885 72.9869L83.3996 72.6758L83.0885 72.3647Z" fill="#3777F7"/>
<path d="M24.2593 16.5539L23.9648 16.8809L24.2918 17.1753L24.5862 16.8483L24.2593 16.5539Z" fill="#3777F7"/>
<path d="M84.5327 70.8254L84.2383 71.1523L84.5653 71.4468L84.8597 71.1198L84.5327 70.8254Z" fill="#3777F7"/>
<path d="M22.8628 18.1698L22.5859 18.5117L22.9279 18.7886L23.2048 18.4467L22.8628 18.1698Z" fill="#3777F7"/>
<path d="M85.898 69.2108L85.6211 69.5527L85.963 69.8297L86.2399 69.4877L85.898 69.2108Z" fill="#3777F7"/>
<path d="M21.5555 19.855L21.2969 20.2109L21.6528 20.4696L21.9115 20.1136L21.5555 19.855Z" fill="#3777F7"/>
<path d="M87.1727 67.5288L86.9141 67.8848L87.2701 68.1434L87.5287 67.7874L87.1727 67.5288Z" fill="#3777F7"/>
<path d="M20.3373 21.6076L20.0977 21.9766L20.4667 22.2162L20.7063 21.8472L20.3373 21.6076Z" fill="#3777F7"/>
<path d="M88.3607 65.7833L88.1211 66.1523L88.4901 66.392L88.7298 66.023L88.3607 65.7833Z" fill="#3777F7"/>
<path d="M19.2122 23.4217L18.9922 23.8027L19.3732 24.0227L19.5932 23.6417L19.2122 23.4217Z" fill="#3777F7"/>
<path d="M89.4505 63.9761L89.2305 64.3572L89.6115 64.5772L89.8315 64.1961L89.4505 63.9761Z" fill="#3777F7"/>
<path d="M18.1841 25.2935L17.9844 25.6855L18.3764 25.8853L18.5762 25.4933L18.1841 25.2935Z" fill="#3777F7"/>
<path d="M90.4497 62.1138L90.25 62.5059L90.642 62.7056L90.8418 62.3136L90.4497 62.1138Z" fill="#3777F7"/>
<path d="M17.2532 27.2152L17.0742 27.6172L17.4762 27.7962L17.6551 27.3942L17.2532 27.2152Z" fill="#3777F7"/>
<path d="M91.3469 60.2035L91.168 60.6055L91.5699 60.7844L91.7489 60.3825L91.3469 60.2035Z" fill="#3777F7"/>
<path d="M16.4272 29.183L16.2695 29.5938L16.6803 29.7514L16.838 29.3407L16.4272 29.183Z" fill="#3777F7"/>
<path d="M92.146 58.2494L91.9883 58.6602L92.399 58.8178L92.5567 58.4071L92.146 58.2494Z" fill="#3777F7"/>
<path d="M15.7024 31.1909L15.5664 31.6094L15.9849 31.7453L16.1208 31.3269L15.7024 31.1909Z" fill="#3777F7"/>
<path d="M92.8391 56.2554L92.7031 56.6738L93.1216 56.8098L93.2576 56.3913L92.8391 56.2554Z" fill="#3777F7"/>
<path d="M15.0865 33.2352L14.9727 33.6602L15.3977 33.774L15.5116 33.349L15.0865 33.2352Z" fill="#3777F7"/>
<path d="M93.4303 54.2274L93.3164 54.6523L93.7414 54.7662L93.8553 54.3412L93.4303 54.2274Z" fill="#3777F7"/>
<path d="M14.5759 35.3079L14.4844 35.7383L14.9148 35.8298L15.0062 35.3994L14.5759 35.3079Z" fill="#3777F7"/>
<path d="M93.9118 52.1712L93.8203 52.6016L94.2507 52.693L94.3422 52.2627L93.9118 52.1712Z" fill="#3777F7"/>
<path d="M14.1782 37.4053L14.1094 37.8398L14.544 37.9087L14.6128 37.4741L14.1782 37.4053Z" fill="#3777F7"/>
<path d="M94.2837 50.0928L94.2148 50.5273L94.6494 50.5962L94.7182 50.1616L94.2837 50.0928Z" fill="#3777F7"/>
<path d="M13.8858 39.5192L13.8398 39.9568L14.2774 40.0028L14.3234 39.5652L13.8858 39.5192Z" fill="#3777F7"/>
<path d="M94.5499 47.998L94.5039 48.4355L94.9415 48.4815L94.9875 48.0439L94.5499 47.998Z" fill="#3777F7"/>
<path d="M13.7066 41.6463L13.6836 42.0857L14.123 42.1087L14.146 41.6693L13.7066 41.6463Z" fill="#3777F7"/>
<path d="M94.7027 45.8907L94.6797 46.3301L95.1191 46.3531L95.1421 45.9137L94.7027 45.8907Z" fill="#3777F7"/>
<path d="M13.6406 43.7807V44.2207H14.0806V43.7807H13.6406Z" fill="#3777F7"/>
<path d="M94.7461 43.7807V44.2207H95.1861V43.7807H94.7461Z" fill="#3777F7"/>
<path d="M13.684 45.9141L13.707 46.3535L14.1464 46.3305L14.1234 45.8911L13.684 45.9141Z" fill="#3777F7"/>
<path d="M94.6801 41.67L94.7031 42.1094L95.1425 42.0863L95.1195 41.6469L94.6801 41.67Z" fill="#3777F7"/>
<path d="M13.8407 48.0431L13.8867 48.4807L14.3243 48.4347L14.2783 47.9971L13.8407 48.0431Z" fill="#3777F7"/>
<path d="M94.5048 39.5644L94.5508 40.002L94.9883 39.956L94.9424 39.5184L94.5048 39.5644Z" fill="#3777F7"/>
<path d="M14.107 50.1609L14.1758 50.5955L14.6104 50.5267L14.5415 50.0921L14.107 50.1609Z" fill="#3777F7"/>
<path d="M94.2163 37.4736L94.2852 37.9082L94.7197 37.8394L94.6509 37.4048L94.2163 37.4736Z" fill="#3777F7"/>
<path d="M14.4866 52.263L14.5781 52.6934L15.0085 52.6019L14.917 52.1715L14.4866 52.263Z" fill="#3777F7"/>
<path d="M93.8187 35.3997L93.9102 35.8301L94.3405 35.7386L94.2491 35.3082L93.8187 35.3997Z" fill="#3777F7"/>
<path d="M14.972 54.3404L15.0859 54.7654L15.5109 54.6515L15.397 54.2265L14.972 54.3404Z" fill="#3777F7"/>
<path d="M93.3158 33.3484L93.4297 33.7734L93.8547 33.6595L93.7408 33.2345L93.3158 33.3484Z" fill="#3777F7"/>
<path d="M15.5671 56.3903L15.7031 56.8088L16.1216 56.6728L15.9856 56.2544L15.5671 56.3903Z" fill="#3777F7"/>
<path d="M92.7039 31.3276L92.8398 31.7461L93.2583 31.6101L93.1223 31.1917L92.7039 31.3276Z" fill="#3777F7"/>
<path d="M16.2681 58.4056L16.4258 58.8164L16.8366 58.6587L16.6789 58.248L16.2681 58.4056Z" fill="#3777F7"/>
<path d="M91.9869 29.3412L92.1445 29.752L92.5553 29.5943L92.3976 29.1835L91.9869 29.3412Z" fill="#3777F7"/>
<path d="M17.0749 60.3832L17.2539 60.7852L17.6559 60.6062L17.4769 60.2042L17.0749 60.3832Z" fill="#3777F7"/>
<path d="M91.1687 27.3949L91.3477 27.7969L91.7496 27.6179L91.5707 27.2159L91.1687 27.3949Z" fill="#3777F7"/>
<path d="M17.9838 62.315L18.1836 62.707L18.5756 62.5073L18.3759 62.1152L17.9838 62.315Z" fill="#3777F7"/>
<path d="M90.2495 25.4928L90.4492 25.8848L90.8412 25.6851L90.6415 25.293L90.2495 25.4928Z" fill="#3777F7"/>
<path d="M18.9909 64.1951L19.2109 64.5762L19.592 64.3562L19.372 63.9751L18.9909 64.1951Z" fill="#3777F7"/>
<path d="M89.2331 23.6424L89.4531 24.0234L89.8342 23.8034L89.6142 23.4224L89.2331 23.6424Z" fill="#3777F7"/>
<path d="M20.0963 66.0216L20.3359 66.3906L20.705 66.151L20.4653 65.782L20.0963 66.0216Z" fill="#3777F7"/>
<path d="M88.1197 21.8478L88.3594 22.2168L88.7284 21.9772L88.4888 21.6081L88.1197 21.8478Z" fill="#3777F7"/>
<path d="M21.2961 67.7886L21.5547 68.1445L21.9107 67.8859L21.652 67.5299L21.2961 67.7886Z" fill="#3777F7"/>
<path d="M86.9133 20.1145L87.1719 20.4705L87.5279 20.2119L87.2693 19.8559L86.9133 20.1145Z" fill="#3777F7"/>
<path d="M22.5864 69.4884L22.8633 69.8303L23.2052 69.5534L22.9283 69.2115L22.5864 69.4884Z" fill="#3777F7"/>
<path d="M85.6176 18.4471L85.8945 18.7891L86.2365 18.5122L85.9596 18.1702L85.6176 18.4471Z" fill="#3777F7"/>
<path d="M23.9634 71.1184L24.2578 71.4453L24.5848 71.1509L24.2904 70.824L23.9634 71.1184Z" fill="#3777F7"/>
<path d="M84.2368 16.8488L84.5312 17.1758L84.8582 16.8814L84.5638 16.5544L84.2368 16.8488Z" fill="#3777F7"/>
<path d="M25.4232 72.6752L25.7344 72.9863L26.0455 72.6752L25.7344 72.3641L25.4232 72.6752Z" fill="#3777F7"/>
<path d="M82.7748 15.3236L83.0859 15.6348L83.397 15.3236L83.0859 15.0125L82.7748 15.3236Z" fill="#3777F7"/>
<path d="M26.966 74.1528L27.293 74.4473L27.5874 74.1203L27.2604 73.8259L26.966 74.1528Z" fill="#3777F7"/>
<path d="M81.2355 13.8792L81.5625 14.1736L81.8569 13.8466L81.5299 13.5522L81.2355 13.8792Z" fill="#3777F7"/>
<path d="M28.5799 75.5493L28.9219 75.8262L29.1988 75.4842L28.8568 75.2074L28.5799 75.5493Z" fill="#3777F7"/>
<path d="M79.6229 12.5161L79.9648 12.793L80.2418 12.451L79.8998 12.1741L79.6229 12.5161Z" fill="#3777F7"/>
<path d="M30.269 76.8566L30.625 77.1152L30.8836 76.7593L30.5277 76.5007L30.269 76.8566Z" fill="#3777F7"/>
<path d="M77.9409 11.2394L78.2969 11.498L78.5555 11.1421L78.1995 10.8835L77.9409 11.2394Z" fill="#3777F7"/>
<path d="M32.0216 78.0748L32.3906 78.3145L32.6303 77.9454L32.2612 77.7058L32.0216 78.0748Z" fill="#3777F7"/>
<path d="M76.1935 10.0533L76.5625 10.293L76.8022 9.92396L76.4331 9.68432L76.1935 10.0533Z" fill="#3777F7"/>
<path d="M33.8338 79.1999L34.2148 79.4199L34.4348 79.0389L34.0538 78.8189L33.8338 79.1999Z" fill="#3777F7"/>
<path d="M74.3885 8.95969L74.7695 9.17969L74.9895 8.79864L74.6085 8.57864L74.3885 8.95969Z" fill="#3777F7"/>
<path d="M35.7056 80.2299L36.0977 80.4297L36.2974 80.0376L35.9054 79.8379L35.7056 80.2299Z" fill="#3777F7"/>
<path d="M72.5259 7.96235L72.918 8.16211L73.1177 7.77007L72.7257 7.57031L72.5259 7.96235Z" fill="#3777F7"/>
<path d="M37.6254 81.1589L38.0273 81.3379L38.2063 80.9359L37.8043 80.7569L37.6254 81.1589Z" fill="#3777F7"/>
<path d="M70.6176 7.06322L71.0195 7.24219L71.1985 6.84023L70.7965 6.66126L70.6176 7.06322Z" fill="#3777F7"/>
<path d="M39.5931 81.9869L40.0039 82.1445L40.1616 81.7338L39.7508 81.5761L39.5931 81.9869Z" fill="#3777F7"/>
<path d="M68.6595 6.26615L69.0703 6.42383L69.228 6.01305L68.8172 5.85537L68.6595 6.26615Z" fill="#3777F7"/>
<path d="M41.6049 82.7097L42.0234 82.8457L42.1594 82.4272L41.7409 82.2913L41.6049 82.7097Z" fill="#3777F7"/>
<path d="M66.6675 5.57302L67.0859 5.70898L67.2219 5.29052L66.8034 5.15456L66.6675 5.57302Z" fill="#3777F7"/>
<path d="M43.6453 83.3275L44.0703 83.4414L44.1842 83.0164L43.7592 82.9025L43.6453 83.3275Z" fill="#3777F7"/>
<path d="M64.6375 4.98402L65.0625 5.0979L65.1764 4.67289L64.7514 4.55901L64.6375 4.98402Z" fill="#3777F7"/>
<path d="M45.718 83.8363L46.1484 83.9277L46.2399 83.4973L45.8095 83.4059L45.718 83.8363Z" fill="#3777F7"/>
<path d="M62.5813 4.50203L63.0117 4.59351L63.1032 4.16312L62.6728 4.07164L62.5813 4.50203Z" fill="#3777F7"/>
<path d="M47.8154 84.2378L48.25 84.3066L48.3188 83.8721L47.8843 83.8032L47.8154 84.2378Z" fill="#3777F7"/>
<path d="M60.5029 4.12843L60.9375 4.19727L61.0063 3.76268L60.5718 3.69385L60.5029 4.12843Z" fill="#3777F7"/>
<path d="M49.9296 84.5263L50.3672 84.5723L50.4132 84.1346L49.9756 84.0887L49.9296 84.5263Z" fill="#3777F7"/>
<path d="M58.4101 3.86441L58.8477 3.9104L58.8937 3.47281L58.4561 3.42682L58.4101 3.86441Z" fill="#3777F7"/>
<path d="M52.0567 84.7055L52.4961 84.7285L52.5191 84.2891L52.0797 84.2661L52.0567 84.7055Z" fill="#3777F7"/>
<path d="M56.3028 3.70939L56.7422 3.73242L56.7652 3.29303L56.3258 3.27L56.3028 3.70939Z" fill="#3777F7"/>
<path d="M35.9533 18.8469C36.1307 19.3914 36.3224 19.9855 36.3792 20.167C36.436 20.3485 36.5745 20.7858 36.687 21.1388L36.8915 21.7808L36.9933 21.5055C37.0492 21.3541 37.1127 21.1643 37.1342 21.0836C37.1557 21.003 37.2195 20.833 37.276 20.7059C37.3325 20.5788 37.3787 20.4075 37.3787 20.3252C37.3787 20.2429 37.4089 20.157 37.4457 20.1342C37.4825 20.1114 37.5349 19.9612 37.5621 19.8003C37.5893 19.6394 37.6388 19.4909 37.6721 19.4703C37.7054 19.4497 37.7549 19.3012 37.7821 19.1403C37.8093 18.9794 37.8616 18.8291 37.8984 18.8063C37.9352 18.7836 37.9656 18.6927 37.9658 18.6043C37.9661 18.5159 38.0156 18.3491 38.0758 18.2336C38.1361 18.118 38.1854 17.9778 38.1854 17.9219C38.1854 17.8413 38.3566 17.8203 39.0135 17.8203H39.8417L39.9749 18.2419C40.0482 18.4739 40.1496 18.7791 40.2004 18.9203C40.2511 19.0614 40.3514 19.3749 40.4232 19.617C40.7316 20.6562 40.7754 20.796 40.8264 20.9027C40.8559 20.9645 40.905 21.1295 40.9355 21.2694C40.9971 21.5522 41.1932 21.8873 41.1904 21.705C41.1888 21.5922 42.0435 18.8939 42.143 18.6979C42.1744 18.636 42.225 18.4721 42.2554 18.3336C42.3658 17.8307 42.387 17.8203 43.2997 17.8203C43.7538 17.8203 44.1254 17.8406 44.1254 17.8655C44.1254 17.9348 43.8923 18.6353 43.7828 18.8947C43.7292 19.0218 43.6854 19.1931 43.6854 19.2754C43.6854 19.3576 43.6561 19.4431 43.6203 19.4651C43.5846 19.4872 43.5329 19.6252 43.5054 19.7718C43.4779 19.9184 43.4264 20.092 43.3909 20.1576C43.3555 20.2233 43.257 20.5245 43.1721 20.827C43.0871 21.1295 42.9887 21.4306 42.9532 21.4963C42.9177 21.5619 42.8663 21.7355 42.8388 21.8821C42.8113 22.0287 42.7595 22.1667 42.7238 22.1888C42.688 22.2108 42.6587 22.2919 42.6587 22.3688C42.6587 22.4457 42.6123 22.617 42.5555 22.7495C42.4988 22.8819 42.3759 23.2461 42.2826 23.5586L42.1128 24.127H41.1474H40.1819L40.0189 23.5953C39.9293 23.3028 39.8308 23.013 39.8 22.9512C39.7692 22.8894 39.7195 22.7244 39.6896 22.5845C39.6596 22.4447 39.6103 22.2973 39.5798 22.257C39.5494 22.2166 39.5014 22.0558 39.4733 21.8996C39.4451 21.7434 39.3925 21.5619 39.3565 21.4963C39.3204 21.4306 39.2334 21.1724 39.163 20.9222C39.0217 20.4201 38.8998 20.4038 38.8114 20.8753C38.7842 21.02 38.7332 21.192 38.6979 21.2576C38.6415 21.3627 38.4884 21.819 38.0675 23.137C38.0031 23.3386 37.8998 23.6439 37.8379 23.8153L37.7254 24.127H36.7998C35.7757 24.127 35.7673 24.1232 35.6554 23.6136C35.625 23.4751 35.5744 23.3112 35.543 23.2494C35.5117 23.1876 35.2818 22.4935 35.0323 21.707C34.7828 20.9205 34.5351 20.1615 34.4819 20.0203C34.4287 19.8791 34.2804 19.4171 34.1523 18.9936C34.0242 18.5701 33.8914 18.1526 33.8573 18.0659C33.8232 17.9792 33.816 17.8875 33.8413 17.8622C33.8667 17.8368 34.2797 17.8252 34.7591 17.8365L35.6307 17.8569L35.9533 18.8469Z" fill="#F3F8FE"/>
<path d="M50.3953 18.517V19.177L48.837 19.1968L47.2786 19.2167V19.7652V20.3137H48.6748H50.071L50.0498 20.9554L50.0286 21.5971L48.6536 21.617L47.2786 21.6369V22.1853V22.7337H48.892H50.5053V23.4304V24.1271H47.9753H45.4453V20.9728V17.8184L47.9203 17.8378L50.3953 17.857V18.517Z" fill="#F3F8FE"/>
<path d="M59.9828 17.9048C60.53 18.0934 60.9522 18.3437 61.2371 18.6482L61.4459 18.8715L60.9206 19.3725C60.6317 19.6479 60.3774 19.8733 60.3556 19.8733C60.3338 19.8733 60.1956 19.7825 60.0487 19.6717C59.603 19.3353 59.4414 19.2689 58.9788 19.2322C58.3929 19.1857 57.9677 19.3095 57.6129 19.6301C57.1944 20.0082 57.0681 20.3196 57.0681 20.9733C57.0681 21.9531 57.4975 22.5145 58.3881 22.6994C58.7706 22.7789 59.4813 22.7064 59.6508 22.5707C59.7089 22.5242 59.7474 22.2136 59.7608 21.6813L59.7815 20.8633H60.5515H61.3215V22.1779V23.4925L60.9181 23.6921C59.5769 24.3557 58.4685 24.4394 57.1781 23.9746C56.6116 23.7705 56.0146 23.2483 55.622 22.6133C54.9223 21.482 55.1298 19.7186 56.0733 18.7775C56.8629 17.9899 57.4623 17.7554 58.6995 17.7502C59.3599 17.7474 59.6156 17.7782 59.9828 17.9048Z" fill="#F3F8FE"/>
<path fill-rule="evenodd" clip-rule="evenodd" d="M67.5555 17.8672C67.6362 17.9098 67.8342 18.006 67.9955 18.081C68.3023 18.2237 68.8077 18.5815 68.9709 18.7717C69.5331 19.4264 69.7922 20.1335 69.7922 21.0134C69.7922 21.612 69.6268 22.3623 69.4805 22.4272C69.4502 22.4407 69.4255 22.4855 69.4255 22.5267C69.4255 22.6359 68.9999 23.1719 68.6968 23.4445C68.1744 23.9144 67.1569 24.2728 66.3455 24.2728C65.7805 24.2728 64.6208 23.9708 64.4218 23.7718C64.3747 23.7247 64.3079 23.6862 64.2732 23.6862C64.153 23.6862 63.5533 23.0697 63.3146 22.7006C62.6871 21.731 62.6579 20.4929 63.2355 19.3595C63.5469 18.7484 64.314 18.1538 65.1722 17.8583C65.5525 17.7274 67.3028 17.734 67.5555 17.8672ZM64.6892 20.5862C64.7719 20.0346 65.2618 19.4479 65.7876 19.2708C65.8726 19.2422 66.1578 19.2289 66.4213 19.2415C67.0042 19.2692 67.4189 19.5006 67.7181 19.9651C68.0002 20.4031 68.0478 21.299 67.8158 21.8081C67.6665 22.1358 67.4295 22.4395 67.323 22.4395C67.2959 22.4395 67.2216 22.4851 67.158 22.5409C67.0942 22.5967 66.8607 22.672 66.6388 22.7083C65.3589 22.9172 64.4826 21.9634 64.6892 20.5862Z" fill="#F3F8FE"/>
<path d="M76.3911 18.5536V19.2869H75.4377H74.4844V21.707V24.127H73.5677H72.6511V21.7092V19.2913L71.7161 19.2708L70.7811 19.2503L70.7596 18.6331C70.7478 18.2937 70.755 17.9719 70.7756 17.9181C70.806 17.8389 71.3454 17.8203 73.6021 17.8203H76.3911V18.5536Z" fill="#F3F8FE"/>
<path fill-rule="evenodd" clip-rule="evenodd" d="M30.9981 28.9511C31.7856 29.2046 32.2749 29.5981 32.548 30.1975C32.7556 30.6532 32.7495 31.6183 32.5363 32.0866C32.3887 32.4107 31.7946 33.0725 31.6514 33.0725C31.5467 33.0725 31.5736 33.2708 31.6948 33.392C31.7553 33.4525 31.8048 33.5244 31.8048 33.5518C31.8048 33.579 31.9038 33.7264 32.0248 33.8792C32.1458 34.0319 32.2448 34.1907 32.2448 34.232C32.2448 34.2732 32.2715 34.3179 32.304 34.3314C32.3708 34.3589 32.8315 35.0182 32.8315 35.0862C32.8315 35.1104 32.3978 35.1209 31.8676 35.1097C30.9914 35.091 30.8965 35.0758 30.8226 34.9425C30.778 34.8619 30.725 34.7794 30.7048 34.7592C30.5944 34.6488 30.3381 34.2409 30.3381 34.1755C30.3381 34.1335 30.3134 34.0991 30.2831 34.099C30.2528 34.099 30.1343 33.9505 30.0197 33.769L29.8113 33.4392H29.3414H28.8715V34.2848V35.1304L27.9731 35.1098L27.0748 35.0892L27.0557 32.0459C27.0451 30.3721 27.0523 28.9613 27.0716 28.9109C27.0985 28.841 27.522 28.8195 28.8509 28.8203C30.3164 28.8212 30.6592 28.8421 30.9981 28.9511ZM28.8715 32.0647V31.1752V30.2859H29.6362C30.2182 30.2859 30.4273 30.3121 30.511 30.3959C30.5715 30.4564 30.651 30.5059 30.6879 30.5059C30.805 30.5059 30.9461 31.0663 30.8959 31.3333C30.8696 31.4734 30.7625 31.6804 30.6577 31.7934C30.4763 31.9893 30.4298 32.0005 29.6694 32.0318L28.8715 32.0647Z" fill="#F3F8FE"/>
<path d="M39.3418 29.4986L39.3207 30.177L37.7623 30.1968L36.204 30.2166V30.7268V31.2371L37.579 31.257L38.954 31.277V31.937V32.597L37.579 32.6169L36.204 32.6369V33.1852V33.7336H37.8173H39.4307V34.4312V35.1289L36.919 35.1096L34.4073 35.0903L34.3882 31.9553L34.3691 28.8203H36.866H39.3628L39.3418 29.4986Z" fill="#F3F8FE"/>
<path d="M42.2905 28.8944C42.2905 28.9352 42.3537 29.1084 42.431 29.2794C42.7368 29.9556 42.8771 30.3101 42.8771 30.4063C42.8771 30.4616 42.9024 30.507 42.9332 30.507C42.9641 30.507 43.0503 30.6802 43.1246 30.892C43.1991 31.1037 43.3241 31.4255 43.4026 31.607C43.4809 31.7885 43.5716 32.003 43.604 32.0836C43.7748 32.5093 43.9752 32.8745 43.9761 32.762C43.9767 32.6914 44.0065 32.6336 44.0425 32.6336C44.0785 32.6336 44.1304 32.5439 44.1579 32.4343C44.1854 32.3247 44.2833 32.069 44.3755 31.866C44.4676 31.6631 44.6998 31.1175 44.8916 30.6536C45.2591 29.7643 45.3963 29.4479 45.5829 29.0586L45.6972 28.8203H46.5604C47.0353 28.8203 47.4238 28.8418 47.4238 28.8682C47.4238 28.9197 47.0973 29.654 46.9809 29.8643C46.9421 29.9343 46.9105 30.025 46.9105 30.0658C46.9105 30.1066 46.8161 30.3462 46.7007 30.5984C46.5854 30.8506 46.4169 31.2385 46.3264 31.4603C46.2359 31.6821 46.1323 31.895 46.0962 31.9333C46.06 31.9716 46.0305 32.0436 46.0305 32.0932C46.0305 32.1428 45.9293 32.4084 45.8058 32.6835C45.4803 33.408 45.301 33.8229 45.0824 34.357C45.0494 34.4376 44.9605 34.6435 44.8848 34.8145L44.7471 35.1253L43.8944 35.1262H43.8278C43.3228 35.1269 43.1181 35.1271 42.9948 35.0271C42.9108 34.9589 42.8646 34.844 42.7868 34.6509L42.7718 34.6136C42.6301 34.2625 42.555 34.0891 42.2577 33.4265C42.1547 33.197 42.0705 32.9862 42.0705 32.9578C42.0705 32.9295 42 32.7543 41.9138 32.5684C41.8277 32.3824 41.7305 32.1643 41.6979 32.0836C41.6023 31.8475 41.3349 31.222 41.2275 30.9836C41.0333 30.5523 40.3105 28.8648 40.3105 28.8427C40.3105 28.8304 40.756 28.8203 41.3005 28.8203C41.9187 28.8203 42.2905 28.8482 42.2905 28.8944Z" fill="#F3F8FE"/>
<path d="M50.2854 31.9736V35.127H49.4054H48.5254V31.9736V28.8203H49.4054H50.2854V31.9736Z" fill="#F3F8FE"/>
<path d="M57.2367 29.4986L57.2156 30.177L55.6573 30.1968L54.0989 30.2166V30.7267V31.237L55.4373 31.2569L56.7756 31.277V31.937V32.597L55.4373 32.617L54.0989 32.6369V33.1853V33.7336H55.7123H57.3256V34.4303V35.127H54.7956H52.2656V31.9736V28.8203H54.7617H57.2578L57.2367 29.4986Z" fill="#F3F8FE"/>
<path d="M60.3957 29.187C60.4518 29.3685 60.5382 29.6325 60.5879 29.7736C60.6782 30.0304 60.7855 30.3775 61.0298 31.2036C61.1013 31.4456 61.2042 31.7476 61.2585 31.8747C61.3128 32.0018 61.3571 32.1548 61.3571 32.2147C61.3571 32.2745 61.4001 32.4064 61.4526 32.5076L61.5481 32.6916L61.6318 32.4977C61.6779 32.3909 61.7385 32.2046 61.7665 32.0836C61.7945 31.9626 61.8428 31.8306 61.874 31.7903C61.9051 31.75 61.9538 31.5929 61.9822 31.4412C62.0105 31.2894 62.063 31.1472 62.0987 31.1252C62.1345 31.1031 62.1638 31.0177 62.1638 30.9354C62.1638 30.8531 62.2082 30.6818 62.2625 30.5547C62.3168 30.4276 62.4704 29.9853 62.6039 29.572L62.8467 28.8203H63.6671H64.4875L64.728 29.572C64.8603 29.9853 64.9933 30.3742 65.0235 30.436C65.0537 30.4979 65.1011 30.6629 65.1287 30.8027C65.1564 30.9426 65.2068 31.123 65.2406 31.2036C65.3612 31.4906 65.6105 32.3158 65.6105 32.4281C65.6105 32.4909 65.66 32.5834 65.7205 32.6336C65.8106 32.7084 65.8305 32.7033 65.8305 32.605C65.8305 32.539 65.861 32.4276 65.8984 32.3576C65.9358 32.2876 66.12 31.7353 66.3078 31.1303C66.4956 30.5253 66.696 29.9219 66.7531 29.7895C66.8103 29.657 66.8571 29.5014 66.8571 29.4436C66.8571 29.3858 66.9127 29.222 66.9807 29.0794L67.1043 28.8203H67.934C68.3904 28.8203 68.7639 28.845 68.7641 28.8753C68.7642 28.9056 68.6685 29.2108 68.5515 29.5536C68.4345 29.8965 68.1347 30.8205 67.8855 31.607C67.6361 32.3935 67.4041 33.0906 67.3697 33.1563C67.3353 33.2219 67.2847 33.3955 67.2572 33.5421C67.2297 33.6887 67.1779 33.8267 67.1422 33.8488C67.1064 33.8708 67.0771 33.9563 67.0771 34.0385C67.0771 34.1208 67.0325 34.2921 66.9781 34.4192C66.9236 34.5463 66.8485 34.7493 66.8114 34.8703L66.7438 35.0903L65.7758 35.1108L64.8077 35.1312L64.7621 34.9274C64.7371 34.8153 64.6703 34.6196 64.6136 34.4926C64.5569 34.3655 64.5105 34.1942 64.5105 34.1119C64.5105 34.0296 64.4803 33.9437 64.4435 33.9209C64.4067 33.8981 64.3531 33.7407 64.3244 33.571C64.2958 33.4014 64.2457 33.2119 64.2132 33.1497C64.1808 33.0877 64.0822 32.7895 63.9943 32.487C63.9063 32.1845 63.805 31.8797 63.7691 31.8097C63.7332 31.7396 63.7038 31.6085 63.7038 31.5183C63.7038 31.3579 63.7016 31.3576 63.6032 31.4989C63.5478 31.5785 63.478 31.7591 63.448 31.9003C63.4181 32.0415 63.3681 32.19 63.3371 32.2303C63.3061 32.2706 63.2566 32.4191 63.2271 32.5603C63.1976 32.7015 63.1481 32.85 63.1171 32.8903C63.0861 32.9306 63.0362 33.078 63.0062 33.2179C62.9763 33.3577 62.9248 33.5227 62.8917 33.5845C62.8586 33.6464 62.7774 33.8785 62.7112 34.1003C62.6449 34.3221 62.5396 34.6439 62.4773 34.8153L62.3638 35.127H61.4266H60.4892L60.3757 34.8153C60.3132 34.6439 60.1594 34.1736 60.0339 33.7703C59.9083 33.367 59.7794 32.9864 59.7473 32.9245C59.7153 32.8627 59.6642 32.6988 59.6338 32.5603C59.6034 32.4218 59.5537 32.2579 59.5234 32.196C59.4712 32.0895 58.8955 30.3037 58.6597 29.517C58.5992 29.3153 58.5215 29.093 58.4868 29.023C58.4522 28.9529 58.4238 28.8777 58.4238 28.8558C58.4238 28.8339 58.8445 28.8251 59.3588 28.8364L60.2938 28.857L60.3957 29.187Z" fill="#F3F8FE"/>
<path d="M75.0566 29.4986L75.0355 30.177L73.4772 30.1968L71.9188 30.2166V30.7268V31.2371L73.2938 31.257L74.6688 31.277V31.937V32.597L73.2938 32.6169L71.9188 32.6369V33.1852V33.7336H73.5322H75.1455V34.4312V35.1289L72.6338 35.1096L70.1222 35.0903L70.103 31.9553L70.084 28.8203H72.5808H75.0777L75.0566 29.4986Z" fill="#F3F8FE"/>
<path fill-rule="evenodd" clip-rule="evenodd" d="M80.9322 28.9408C82.1639 29.3029 82.9346 30.0117 83.228 31.0522C83.336 31.4348 83.3366 32.5108 83.229 32.8903C83.0176 33.6365 82.4215 34.3444 81.7212 34.6809C80.908 35.0715 80.5185 35.127 78.586 35.127H76.832V31.9736V28.8203H78.6772C80.1735 28.8203 80.5999 28.8431 80.9322 28.9408ZM78.6653 33.6603V31.9736V30.287H79.5027C80.3936 30.287 80.5792 30.34 81.026 30.7218C81.3246 30.9772 81.4604 31.2848 81.5057 31.8085C81.5711 32.5638 81.1543 33.3466 80.6148 33.4819C80.5098 33.5083 80.4058 33.5592 80.3836 33.5951C80.3614 33.631 79.9658 33.6603 79.5043 33.6603H78.6653Z" fill="#F3F8FE"/>
<path fill-rule="evenodd" clip-rule="evenodd" d="M52.9987 40.6195V41.1998L53.3688 41.0435C53.7337 40.8893 53.7442 40.889 54.1149 41.0207C54.721 41.2359 54.9775 41.5693 54.9782 42.1427C54.9789 42.7199 54.7807 43.088 54.3481 43.3124C54.0804 43.4513 53.4033 43.4407 53.1795 43.294C53.0131 43.185 52.9987 43.185 52.9987 43.294C52.9987 43.3833 52.9265 43.4124 52.7054 43.4124H52.4121V41.7258V40.0391H52.7054H52.9987V40.6195ZM53.089 42.5324C52.9607 42.2853 53.0374 41.8097 53.2327 41.6403C53.4445 41.4566 53.9513 41.4609 54.1673 41.6482C54.553 41.9828 54.3954 42.7326 53.908 42.8822C53.6099 42.9737 53.2348 42.8135 53.089 42.5324Z" fill="#F3F8FE"/>
<path d="M55.9131 41.0858C55.9534 41.1362 56.0109 41.26 56.0408 41.3608C56.0708 41.4616 56.1685 41.7091 56.2581 41.9108C56.3475 42.1125 56.4635 42.3765 56.5157 42.4975L56.6106 42.7175L56.7658 42.3784C56.8512 42.1919 56.9662 41.9279 57.0213 41.7917L57.0243 41.7842C57.244 41.2418 57.3121 41.0736 57.4313 41.0208C57.4848 40.9971 57.5487 40.9967 57.6413 40.996H57.6439C57.8858 40.9944 57.9188 41.0127 57.8714 41.1225C57.841 41.193 57.7799 41.358 57.7356 41.4891C57.6913 41.6203 57.6303 41.7275 57.5998 41.7275C57.5693 41.7275 57.5444 41.7623 57.5444 41.8048C57.5444 41.8719 57.4526 42.1004 57.1777 42.7175C57.1418 42.7981 57.0426 43.0291 56.9573 43.2308C56.6862 43.8714 56.5722 44.0537 56.3661 44.1754C56.096 44.335 55.5499 44.3298 55.3537 44.1658C55.2029 44.0398 55.2026 44.0342 55.3369 43.86C55.4637 43.6956 55.4908 43.6896 55.7043 43.778C55.9061 43.8615 55.9526 43.8574 56.0777 43.7441C56.3039 43.5395 56.3196 43.3657 56.1456 42.9922C56.0565 42.8008 55.9421 42.5451 55.8914 42.4241C55.8407 42.3031 55.7149 42.0226 55.612 41.8008C55.509 41.579 55.4031 41.3067 55.3766 41.1958C55.3311 41.0051 55.3425 40.9941 55.5841 40.9941C55.7247 40.9941 55.8728 41.0354 55.9131 41.0858Z" fill="#F3F8FE"/>
<path d="M49.4807 71.4278C50.1895 71.7894 50.507 72.4516 50.3421 73.2245C50.2401 73.703 50.1474 73.8364 49.3751 74.6161L48.7214 75.2761L49.6127 75.2967L50.504 75.3173V75.9384V76.5594H48.4873H46.4707V76.1251C46.4707 76.1013 46.4705 76.0789 46.4704 76.0575C46.4697 75.9503 46.4693 75.8719 46.4871 75.7978C46.5357 75.5962 46.7203 75.4273 47.4076 74.7983L47.4175 74.7893L47.5039 74.7102L47.5666 74.6527C47.9408 74.3099 48.3256 73.957 48.4218 73.8683C49.0563 73.2832 49.1391 72.6084 48.5912 72.4881C48.2062 72.4035 47.7667 72.5108 47.4997 72.7547L47.2547 72.9784L46.9339 72.7522C46.7574 72.6279 46.5861 72.5261 46.5532 72.5261C46.5203 72.5261 46.4361 72.4628 46.3661 72.3854C46.2438 72.2503 46.2507 72.2327 46.5398 71.9436C46.853 71.6304 47.4479 71.3113 47.8273 71.2529C48.2738 71.1843 49.1942 71.2816 49.4807 71.4278Z" fill="#F3F8FE"/>
<path fill-rule="evenodd" clip-rule="evenodd" d="M54.3772 71.4222C54.7823 71.6326 55.092 71.9516 55.3542 72.4285C55.575 72.8302 55.5916 72.9121 55.6223 73.7538C55.6483 74.4654 55.6293 74.731 55.5304 75.0372C55.3886 75.4768 54.9862 76.1153 54.8491 76.1181C54.7987 76.1191 54.7574 76.1469 54.7574 76.1799C54.7574 76.2128 54.6171 76.32 54.4458 76.4181C54.1746 76.5733 54.0435 76.5962 53.4374 76.5944C52.8047 76.5925 52.7045 76.5723 52.3454 76.3745C51.5501 75.9364 51.1641 75.1376 51.1641 73.93C51.1641 73.1946 51.2367 72.8641 51.5124 72.3433C51.7643 71.8679 52.4435 71.3429 52.9241 71.2524C53.2814 71.1851 54.1062 71.2815 54.3772 71.4222ZM52.7727 72.8266C52.8659 72.6957 53.0124 72.5586 53.0982 72.5218C53.3377 72.4194 53.7705 72.4931 53.9433 72.6659C54.0385 72.7611 54.1453 73.0337 54.2193 73.3706C54.3315 73.8813 54.3315 73.959 54.2184 74.4734C54.0883 75.0659 53.9749 75.2344 53.6086 75.3803C53.4134 75.458 53.3371 75.4541 53.1299 75.3558C52.7119 75.1574 52.5957 74.835 52.5997 73.8851C52.6029 73.1485 52.6206 73.0403 52.7727 72.8266Z" fill="#F3F8FE"/>
<path d="M59.3317 71.4844C59.5292 71.5919 59.7435 71.7631 59.8081 71.8649C59.8727 71.9666 59.9593 72.0734 60.0006 72.1022C60.0426 72.1316 60.0756 72.4545 60.0756 72.8356C60.0756 73.6552 60.0574 73.6895 59.1324 74.6165L58.4737 75.2765L59.3452 75.2973C59.9294 75.3112 60.2353 75.3475 60.2733 75.4073C60.3045 75.4564 60.3305 75.7358 60.3312 76.0281L60.3323 76.5598H58.3156H56.2989L56.3051 76.0648L56.3113 75.5698L57.1549 74.7998C58.3662 73.6941 58.5038 73.5495 58.6501 73.2273C58.766 72.9721 58.7693 72.9149 58.6781 72.7385C58.4825 72.3602 57.6824 72.3644 57.2648 72.7458L57.0301 72.9602L56.7562 72.8007C56.6055 72.713 56.4713 72.6155 56.4578 72.5839C56.4443 72.5523 56.4017 72.5265 56.3631 72.5265C56.3244 72.5265 56.2252 72.4635 56.1425 72.3865L55.9922 72.2465L56.2997 71.9391C56.8378 71.401 57.4882 71.1908 58.4241 71.2527C58.831 71.2796 59.0653 71.3394 59.3317 71.4844Z" fill="#F3F8FE"/>
<path d="M63.044 73.9193V76.5593H62.384H61.724V74.5426V72.526H61.2107H60.6973V71.9026V71.2793H61.8707H63.044V73.9193Z" fill="#F3F8FE"/>
<path fill-rule="evenodd" clip-rule="evenodd" d="M9.16602 48.1074V60.6474V65.0474H99.6593V60.7208V48.1074H92.546H16.3526H9.16602Z" fill="white"/>
<path d="M16.3546 43.6328L9.16797 48.1061H16.3546V43.6328Z" fill="#D0DCF0"/>
<path d="M99.6621 48.1061L92.5488 43.6328V48.1061H99.6621Z" fill="#D0DCF0"/>
<path d="M92.5469 43.6328L99.6602 48.1061V60.7195H108.9L105.967 52.1395L108.9 43.6328H92.5469Z" fill="#EDF2F8"/>
<path d="M16.3533 43.6328H0L2.93333 52.1395L0 60.6461H9.16667V48.1061L16.3533 43.6328Z" fill="#EDF2F8"/>
<path fill-rule="evenodd" clip-rule="evenodd" d="M21.3601 52.2273C21.4517 52.3822 21.934 52.9782 22.0135 53.035C22.0601 53.0682 22.1003 54.5407 22.1235 57.0683L22.1602 61.0493H24.9102C27.3401 61.0493 27.7008 61.0345 28.0087 60.9218C28.8753 60.6047 29.3183 60.1372 29.5953 59.2474C29.7639 58.7063 29.6379 58.0036 29.266 57.4096C29.0803 57.1129 28.5079 56.6139 28.3493 56.6103C28.293 56.6091 28.1828 56.5596 28.1045 56.5003C27.9777 56.4045 27.9761 56.3927 28.0888 56.3927C28.3278 56.3927 29.0902 55.7975 29.0902 55.6109C29.0902 55.5569 29.1206 55.5127 29.1576 55.5127C29.2286 55.5127 29.3707 55.0112 29.4356 54.5315C29.5001 54.0549 29.2267 53.3185 28.8335 52.91C28.5312 52.5958 28.1783 52.3593 28.0119 52.3593C27.9354 52.3593 27.8317 52.3181 27.7813 52.2677C27.6442 52.1305 21.2791 52.0905 21.3601 52.2273ZM27.5499 54.7352C27.5503 54.4639 27.2872 54.0476 27.0347 53.9198C26.9087 53.8561 26.4232 53.8278 25.4397 53.8271L24.0258 53.826L24.0463 54.761L24.0669 55.696L25.3682 55.716C26.5609 55.7343 26.6942 55.7234 26.966 55.5847C27.3098 55.4093 27.5496 55.0606 27.5499 54.7352ZM27.6276 58.0639C27.5168 57.6941 27.3291 57.5281 26.8585 57.3837C26.4862 57.2694 24.1827 57.2179 24.0791 57.3216C24.0522 57.3484 24.0302 57.8288 24.0302 58.389V59.4075L25.5519 59.3851C26.9872 59.3639 27.0865 59.3534 27.3017 59.1999C27.6136 58.9774 27.7543 58.4868 27.6276 58.0639Z" fill="#1C293E"/>
<path d="M30.7773 56.5694C30.7773 60.5403 30.7893 61.0029 30.8933 61.0428C30.9571 61.0673 32.3926 61.0873 34.0833 61.0873H37.1573V60.2439V59.4006H34.9206H32.6839V58.4253C32.6839 57.7645 32.7123 57.4216 32.7719 57.362C32.8355 57.2984 33.3456 57.274 34.6053 57.274H36.3506V56.5052V55.7365L34.5356 55.7169L32.7206 55.6973L32.7001 54.7623L32.6795 53.8273H34.9184H37.1573V52.984V52.1406H33.9673H30.7773V56.5694Z" fill="#1C293E"/>
<path d="M37.9044 52.269C37.9652 52.3395 38.1683 52.5883 38.3558 52.8218L38.6965 53.2464V57.169V61.0917L39.6315 61.0711L40.5665 61.0506L40.5857 58.209C40.5963 56.6461 40.6206 55.3673 40.6398 55.3673C40.7217 55.3673 40.9698 55.6277 40.9698 55.7136C40.9698 55.7651 40.9957 55.8073 41.0273 55.8073C41.059 55.8073 41.1427 55.9051 41.2132 56.0247C41.2838 56.1442 41.384 56.2844 41.4358 56.3363C41.4876 56.3882 41.6566 56.6121 41.8114 56.834C41.9662 57.0558 42.1146 57.2538 42.1412 57.274C42.1678 57.2941 42.3013 57.4756 42.4378 57.6773C42.5744 57.879 42.7207 58.0811 42.763 58.1266C42.8053 58.1721 42.8893 58.2832 42.9498 58.3734C43.0501 58.5231 43.263 58.8126 43.4087 58.9973C43.4405 59.0376 43.719 59.4171 44.0277 59.8406C44.3363 60.2641 44.6085 60.6271 44.6327 60.6473C44.6568 60.6674 44.7343 60.7747 44.8049 60.8856C44.933 61.0871 44.9341 61.0873 45.8037 61.0873C46.5297 61.0873 46.6815 61.0681 46.7186 60.9713C46.7431 60.9075 46.7632 58.8945 46.7632 56.4979V52.1406H45.7786H44.7941L44.7917 54.8631C44.7905 56.3604 44.7761 57.5988 44.7598 57.6151C44.7229 57.6521 43.9032 56.5554 43.9032 56.4691C43.9032 56.4345 43.8749 56.3952 43.8405 56.3817C43.8059 56.3683 43.2773 55.6808 42.6657 54.854C42.054 54.0271 41.5024 53.2846 41.4397 53.204C41.3771 53.1233 41.1735 52.8511 40.987 52.599L40.6482 52.1406H39.221C37.8685 52.1406 37.7995 52.1474 37.9044 52.269Z" fill="#1C293E"/>
<path d="M47.8802 52.9656L47.9009 53.7906L49.9812 53.8273L52.0613 53.864L51.1728 55.0566C50.6841 55.7125 50.2843 56.279 50.2843 56.3154C50.2843 56.3519 50.2535 56.3927 50.2161 56.4062C50.1785 56.4196 49.9314 56.7276 49.6668 57.0906C49.4022 57.4536 49.1112 57.8462 49.02 57.9629C48.9288 58.0797 48.7718 58.2942 48.6709 58.4396C48.5701 58.585 48.4629 58.7149 48.4326 58.7284C48.4023 58.7419 48.3776 58.7996 48.3776 58.8567C48.3776 58.9138 48.346 58.9606 48.3073 58.9606C48.2687 58.9606 48.152 59.1059 48.048 59.2834C47.8739 59.5803 47.8604 59.6641 47.8799 60.3284L47.9009 61.0506L51.2328 61.0697C53.8496 61.0847 54.5773 61.0689 54.6233 60.9963C54.6556 60.9455 54.6825 60.5657 54.6832 60.1523L54.6843 59.4006H52.5167H50.3493L50.4792 59.1806C50.5507 59.0596 50.6351 58.9606 50.6668 58.9606C50.6984 58.9606 50.7243 58.9111 50.7243 58.8506C50.7243 58.7901 50.7507 58.7406 50.7828 58.7406C50.815 58.7406 50.9223 58.6095 51.0212 58.4493C51.12 58.289 51.2202 58.157 51.2437 58.1559C51.2673 58.1548 51.4158 57.9642 51.5737 57.7323C51.7316 57.5003 51.918 57.2474 51.9877 57.1701C52.0575 57.0928 52.2059 56.8948 52.3175 56.7301C52.4292 56.5654 52.5403 56.4141 52.5644 56.394C52.5885 56.3738 53.0589 55.7487 53.6096 55.0049L54.6109 53.6525V52.8966V52.1406H51.2352H47.8594L47.8802 52.9656Z" fill="#1C293E"/>
<path d="M56.2227 56.614V61.0873H57.176H58.1293V56.614V52.1406H57.176H56.2227V56.614Z" fill="#1C293E"/>
<path d="M59.4613 52.4523C59.5948 52.6237 59.7225 52.7805 59.7451 52.8006C59.7677 52.8208 59.8593 52.9325 59.9486 53.0489L60.111 53.2604V57.1739V61.0873H61.0644H62.0177V58.2273C62.0177 56.6543 62.0357 55.3673 62.0579 55.3673C62.1286 55.3673 62.4691 55.7639 62.577 55.9723C62.6344 56.0832 62.7137 56.174 62.753 56.174C62.7923 56.174 62.8245 56.2207 62.8245 56.2779C62.8245 56.335 62.8492 56.3927 62.8795 56.4062C62.9097 56.4196 63.017 56.5496 63.1178 56.695C63.2186 56.8404 63.3757 57.0549 63.4669 57.1717C63.5581 57.2884 63.8491 57.681 64.1137 58.044C64.3783 58.407 64.6254 58.7149 64.6629 58.7284C64.7004 58.7419 64.7311 58.7845 64.7311 58.8232C64.7311 58.8618 64.7643 58.9333 64.805 58.982C64.8457 59.0307 65.1967 59.4996 65.5849 60.0239C65.973 60.5483 66.3274 61.0015 66.3725 61.0312C66.5138 61.1241 67.9923 61.0967 68.0897 60.9993C68.1562 60.9328 68.1778 59.839 68.1778 56.526V52.1406H67.2245H66.2711V54.8906C66.2711 56.4367 66.2427 57.6406 66.2062 57.6406C66.1705 57.6406 65.9156 57.3353 65.6397 56.9623C63.9912 54.7331 62.574 52.8324 62.5368 52.8006C62.5134 52.7805 62.3989 52.6237 62.2826 52.4523L62.0712 52.1406H60.645H59.2188L59.4613 52.4523Z" fill="#1C293E"/>
<path d="M73.2373 52.1884C72.5978 52.3199 71.8077 52.5864 71.6803 52.7139C71.6332 52.761 71.5647 52.7995 71.5282 52.7995C71.378 52.7995 70.6559 53.4312 70.2618 53.9073C70.0609 54.15 69.6579 54.9607 69.5548 55.3295C69.5098 55.4909 69.4597 56.002 69.4437 56.4654C69.4103 57.4264 69.5043 57.8944 69.8853 58.6662C70.1143 59.1299 70.9996 60.1475 71.2515 60.2365C71.3152 60.2591 71.4806 60.3467 71.6192 60.4313C72.4657 60.9481 74.0491 61.1854 75.0706 60.9486C75.6271 60.8196 76.4715 60.4928 76.6106 60.3527C76.6308 60.3324 76.7793 60.2257 76.9406 60.1155C77.102 60.0055 77.3413 59.823 77.4723 59.7102L77.7105 59.5051V57.839V56.1729H75.6878H73.6649L73.9076 56.4845C74.041 56.6559 74.1697 56.8127 74.1936 56.8329C74.2175 56.853 74.378 57.0579 74.5502 57.2881L74.8635 57.7067L75.3887 57.7281L75.9139 57.7495V58.2915C75.9139 58.7576 75.8934 58.845 75.7673 58.9149C75.6866 58.9596 75.6041 59.0165 75.584 59.0413C75.5638 59.0661 75.4648 59.1118 75.364 59.1428C75.2631 59.1739 75.1621 59.2278 75.1396 59.2626C75.0633 59.3807 74.2297 59.4885 73.7506 59.4422C72.778 59.3482 71.8888 58.6886 71.5429 57.8047C71.2016 56.932 71.2885 55.7944 71.7543 55.0362C71.9845 54.6618 72.3581 54.2662 72.4817 54.2662C72.5343 54.2662 72.5772 54.2394 72.5772 54.2066C72.5772 54.1738 72.7505 54.07 72.9623 53.9759C73.2721 53.8382 73.4781 53.8042 74.016 53.8021C74.5985 53.7999 74.7373 53.8253 75.0939 53.9998C75.319 54.1099 75.6503 54.3493 75.8302 54.5317L76.1571 54.8633L76.6222 54.6041C76.878 54.4616 77.1946 54.2905 77.3256 54.2239C77.4567 54.1573 77.564 54.0652 77.564 54.0192C77.564 53.8879 77.0458 53.2887 76.7214 53.0448C75.9051 52.4311 75.2316 52.1986 74.1906 52.1711C73.7671 52.1599 73.3381 52.1678 73.2373 52.1884Z" fill="#1C293E"/>
<path fill-rule="evenodd" clip-rule="evenodd" d="M80.6538 52.4523C80.7873 52.6237 80.9154 52.7805 80.9385 52.8006C80.9617 52.8208 81.0564 52.9457 81.1489 53.0781C81.3067 53.3039 81.3099 53.3302 81.2004 53.4972C81.1362 53.5953 81.0836 53.7144 81.0836 53.7618C81.0836 53.8341 80.7214 54.8128 80.503 55.3306C80.469 55.4113 80.3832 55.6258 80.3124 55.8073C80.2416 55.9888 80.1386 56.2413 80.0836 56.3684C80.0286 56.4954 79.9836 56.6522 79.9836 56.7167C79.9836 56.7812 79.9506 56.834 79.9102 56.834C79.8699 56.834 79.8358 56.8917 79.8344 56.9623C79.833 57.0328 79.7682 57.2226 79.6902 57.384C79.6123 57.5453 79.5475 57.7331 79.5461 57.8013C79.5447 57.8695 79.5106 57.9457 79.4702 57.9706C79.4299 57.9956 79.3969 58.0653 79.3969 58.1256C79.3969 58.2307 79.1762 58.784 79.0277 59.0513C78.9887 59.1213 78.9569 59.2153 78.9569 59.2602C78.9569 59.3051 78.9119 59.4458 78.8569 59.5729C78.8019 59.7 78.6983 59.9524 78.6269 60.1339C78.5555 60.3154 78.4519 60.5679 78.3969 60.695C78.3419 60.8221 78.2969 60.9624 78.2969 61.0067C78.2969 61.0615 78.6349 61.0873 79.3544 61.0873H80.4119L80.4602 60.8673C80.4868 60.7463 80.5352 60.6473 80.5677 60.6473C80.6003 60.6473 80.6441 60.5566 80.665 60.4456C80.7169 60.1706 80.8964 59.7051 80.9845 59.617C81.0293 59.5722 81.7795 59.5522 82.9561 59.5644L84.8554 59.5839L84.9948 59.9506C85.0715 60.1523 85.169 60.3833 85.2115 60.4639C85.254 60.5446 85.3092 60.7096 85.3341 60.8306L85.3794 61.0506L86.4601 61.0709L87.5407 61.0912L87.4934 60.8876C87.4674 60.7756 87.4006 60.6108 87.3448 60.5215C87.2891 60.4322 87.2436 60.3111 87.2436 60.2525C87.2436 60.1938 87.1967 60.0524 87.1394 59.9382C87.0821 59.824 86.9786 59.5821 86.9095 59.4006C86.8402 59.2191 86.7386 58.9666 86.6836 58.8395C86.6286 58.7125 86.5836 58.5623 86.5836 58.5059C86.5836 58.4494 86.556 58.3719 86.5223 58.3336C86.4887 58.2953 86.402 58.099 86.3298 57.8973C86.2575 57.6956 86.1541 57.4316 86.1002 57.3106C86.0462 57.1896 85.8848 56.7771 85.7416 56.394C85.5983 56.0108 85.451 55.6313 85.4142 55.5506C85.3774 55.47 85.242 55.1235 85.1134 54.7806C84.9848 54.4378 84.8339 54.0533 84.7782 53.9262C84.7225 53.7991 84.6769 53.6424 84.6769 53.5779C84.6769 53.5134 84.6465 53.4606 84.6094 53.4606C84.5723 53.4606 84.5197 53.3594 84.4925 53.2357C84.4653 53.112 84.3969 52.9222 84.3405 52.8141C84.284 52.7058 84.2365 52.5678 84.235 52.5073C84.2335 52.4468 84.1884 52.3395 84.1348 52.269C84.0467 52.1528 83.865 52.1406 82.2243 52.1406H80.4113L80.6538 52.4523ZM83.0579 54.5204C83.0207 54.4975 82.9902 54.4146 82.9902 54.3363C82.9902 54.258 82.9407 54.194 82.8802 54.194C82.8197 54.194 82.7702 54.2397 82.7702 54.2956C82.7702 54.3515 82.721 54.4917 82.6607 54.6073C82.6005 54.7228 82.551 54.8684 82.5507 54.931C82.5505 54.9935 82.5224 55.076 82.4886 55.1143C82.4546 55.1526 82.353 55.415 82.2628 55.6973C82.1726 55.9796 82.0547 56.3096 82.0009 56.4306C81.9471 56.5516 81.8459 56.8321 81.7761 57.054C81.7062 57.2758 81.6208 57.4887 81.5863 57.527C81.5518 57.5652 81.5236 57.656 81.5236 57.7286C81.5236 57.8509 81.6227 57.8606 82.8802 57.8606C84.3226 57.8606 84.3498 57.8533 84.17 57.5113C84.0796 57.3397 83.6699 56.1877 83.6092 55.935C83.5825 55.8236 83.5313 55.7145 83.4954 55.6923C83.4596 55.6701 83.43 55.5962 83.4298 55.528C83.4295 55.4598 83.3832 55.3154 83.3267 55.2072C83.2702 55.099 83.2019 54.9097 83.1748 54.7864C83.1478 54.6631 83.0952 54.5435 83.0579 54.5204Z" fill="#1C293E"/>
</g>
<defs>
<clipPath id="clip0_1_66">
<rect width="109" height="88" fill="white"/>
</clipPath>
</defs>
</svg>
