<svg width="140" height="31" viewBox="0 0 140 31" fill="none" xmlns="http://www.w3.org/2000/svg">
<path d="M0.752 23V0.952H14.224V4.6H4.848V10.328H12.272V13.976H4.848V23H0.752ZM27.5048 23V21.08C27.0568 21.784 26.3741 22.328 25.4568 22.712C24.5608 23.096 23.6968 23.288 22.8648 23.288C20.8168 23.288 19.0354 22.5733 17.5208 21.144C16.0061 19.6933 15.2488 17.816 15.2488 15.512C15.2488 13.208 15.9954 11.3413 17.4888 9.912C19.0034 8.46133 20.7954 7.736 22.8648 7.736C23.6968 7.736 24.5501 7.91733 25.4248 8.28C26.3208 8.62133 27.0141 9.16533 27.5048 9.912V8.056H31.4088V23H27.5048ZM20.4968 12.632C19.6861 13.3787 19.2808 14.3387 19.2808 15.512C19.2808 16.6853 19.6861 17.656 20.4968 18.424C21.3288 19.1707 22.2994 19.544 23.4088 19.544C24.5181 19.544 25.4781 19.1813 26.2888 18.456C27.0994 17.7093 27.5048 16.728 27.5048 15.512C27.5048 14.2747 27.0888 13.2933 26.2568 12.568C25.4461 11.8427 24.4968 11.48 23.4088 11.48C22.2994 11.48 21.3288 11.864 20.4968 12.632ZM39.449 16.76C38.5317 16.504 37.7743 16.2053 37.177 15.864C36.5797 15.5227 36.1423 15.1387 35.865 14.712C35.609 14.2853 35.4383 13.8907 35.353 13.528C35.2677 13.144 35.225 12.696 35.225 12.184C35.225 10.9893 35.769 9.95467 36.857 9.08C37.945 8.184 39.2357 7.736 40.729 7.736C42.3077 7.736 43.6517 8.12 44.761 8.888C45.8917 9.656 46.489 10.84 46.553 12.44H42.841C42.8197 11.928 42.6063 11.544 42.201 11.288C41.7957 11.032 41.337 10.904 40.825 10.904C39.5663 10.904 38.937 11.3947 38.937 12.376C38.937 12.9307 39.4597 13.3467 40.505 13.624L43.001 14.232C43.8117 14.4453 44.4943 14.744 45.049 15.128C45.6037 15.512 45.9983 15.9387 46.233 16.408C46.489 16.856 46.6597 17.2613 46.745 17.624C46.8517 17.9867 46.905 18.3493 46.905 18.712C46.905 20.1627 46.297 21.2933 45.081 22.104C43.8863 22.9147 42.457 23.32 40.793 23.32C39.2143 23.32 37.817 22.872 36.601 21.976C35.4063 21.0587 34.7983 19.832 34.777 18.296H38.425C38.4677 18.8293 38.7557 19.288 39.289 19.672C39.8437 20.0347 40.473 20.2053 41.177 20.184C41.7317 20.1627 42.1903 20.0133 42.553 19.736C42.937 19.4587 43.129 19.1067 43.129 18.68C43.1503 18.3173 43.0223 18.0293 42.745 17.816C42.489 17.5813 42.073 17.4 41.497 17.272L39.449 16.76ZM55.4843 2.36V8.056H58.6523V11.192H55.4843V23H51.6123V11.192H48.8923V8.056H51.6123V2.36H55.4843ZM60.847 16.568H64.943C64.9857 17.4213 65.3483 18.1573 66.031 18.776C66.7137 19.3733 67.6203 19.672 68.751 19.672C69.8177 19.672 70.6817 19.4267 71.343 18.936C72.0043 18.424 72.3563 17.784 72.399 17.016C72.4417 16.2907 72.207 15.6827 71.695 15.192C71.2043 14.7013 70.4257 14.3067 69.359 14.008L66.639 13.304C62.927 12.216 61.071 10.168 61.071 7.16C61.071 5.26133 61.7857 3.71467 63.215 2.52C64.6657 1.304 66.4257 0.695999 68.495 0.695999C70.6283 0.695999 72.3777 1.304 73.743 2.52C75.1297 3.71467 75.823 5.32533 75.823 7.352H71.727C71.727 6.47733 71.4283 5.784 70.831 5.272C70.255 4.73867 69.455 4.472 68.431 4.472C67.4923 4.472 66.703 4.71733 66.063 5.208C65.4443 5.67733 65.135 6.296 65.135 7.064C65.135 8.28 66.0097 9.12267 67.759 9.592L70.479 10.392C72.7617 11.0107 74.3617 11.9173 75.279 13.112C76.1963 14.3067 76.6017 15.64 76.495 17.112C76.4097 19.032 75.6203 20.5573 74.127 21.688C72.655 22.7973 70.863 23.352 68.751 23.352C66.4257 23.352 64.527 22.7013 63.055 21.4C61.583 20.0987 60.847 18.488 60.847 16.568ZM101.976 8.056L96.6315 23H93.3675L90.0395 12.984L86.8075 23H83.5755L78.0715 8.056H82.2315L85.2715 17.496L88.2795 8.056H91.7355L94.7755 17.496L97.8155 8.056H101.976ZM115.724 23V21.08C115.276 21.784 114.593 22.328 113.676 22.712C112.78 23.096 111.916 23.288 111.084 23.288C109.036 23.288 107.254 22.5733 105.74 21.144C104.225 19.6933 103.468 17.816 103.468 15.512C103.468 13.208 104.214 11.3413 105.708 9.912C107.222 8.46133 109.014 7.736 111.084 7.736C111.916 7.736 112.769 7.91733 113.644 8.28C114.54 8.62133 115.233 9.16533 115.724 9.912V8.056H119.628V23H115.724ZM108.716 12.632C107.905 13.3787 107.5 14.3387 107.5 15.512C107.5 16.6853 107.905 17.656 108.716 18.424C109.548 19.1707 110.518 19.544 111.628 19.544C112.737 19.544 113.697 19.1813 114.508 18.456C115.318 17.7093 115.724 16.728 115.724 15.512C115.724 14.2747 115.308 13.2933 114.476 12.568C113.665 11.8427 112.716 11.48 111.628 11.48C110.518 11.48 109.548 11.864 108.716 12.632ZM127.956 8.056V10.072C128.34 9.34667 128.958 8.78133 129.812 8.376C130.686 7.94933 131.625 7.736 132.628 7.736C134.633 7.736 136.35 8.46133 137.78 9.912C139.209 11.3627 139.924 13.2293 139.924 15.512C139.924 17.8373 139.209 19.7253 137.78 21.176C136.372 22.6053 134.654 23.32 132.628 23.32C131.625 23.32 130.686 23.1173 129.812 22.712C128.958 22.3067 128.34 21.7413 127.956 21.016V30.264H124.052V8.056H127.956ZM128.02 15.576C128.02 16.8133 128.404 17.7947 129.172 18.52C129.961 19.2453 130.9 19.608 131.988 19.608C133.097 19.608 134.025 19.2347 134.772 18.488C135.54 17.7413 135.924 16.7707 135.924 15.576C135.924 14.3813 135.54 13.4 134.772 12.632C134.004 11.864 133.076 11.48 131.988 11.48C130.878 11.48 129.94 11.864 129.172 12.632C128.404 13.3787 128.02 14.36 128.02 15.576Z" fill="#9C27B0"/>
</svg>
