<svg width="120" height="85" viewBox="0 0 120 85" fill="none" xmlns="http://www.w3.org/2000/svg">
<path d="M16.7802 75.3994H12.4668V78.9268H17.4775V80H11.1543V70.0469H17.4092V71.127H12.4668V74.3262H16.7802V75.3994ZM21.6878 75.3037L23.3285 72.6035H24.805L22.3851 76.2607L24.8802 80H23.4173L21.7083 77.2314L19.9994 80H18.5296L21.0248 76.2607L18.6048 72.6035H20.0677L21.6878 75.3037ZM29.2751 79.1045C29.7263 79.1045 30.1205 78.9678 30.4577 78.6943C30.795 78.4209 30.9818 78.0791 31.0183 77.6689H32.2146C32.1918 78.0928 32.046 78.4961 31.7771 78.8789C31.5082 79.2617 31.1482 79.5671 30.697 79.7949C30.2504 80.0228 29.7764 80.1367 29.2751 80.1367C28.268 80.1367 27.4659 79.8018 26.8689 79.1318C26.2764 78.4574 25.9802 77.5368 25.9802 76.3701V76.1582C25.9802 75.4382 26.1124 74.7979 26.3767 74.2373C26.641 73.6768 27.0193 73.2415 27.5114 72.9316C28.0082 72.6217 28.5938 72.4668 29.2683 72.4668C30.0977 72.4668 30.7859 72.7152 31.3327 73.2119C31.8842 73.7087 32.1781 74.3535 32.2146 75.1465H31.0183C30.9818 74.668 30.7995 74.276 30.4714 73.9707C30.1478 73.6608 29.7468 73.5059 29.2683 73.5059C28.6257 73.5059 28.1267 73.7383 27.7712 74.2031C27.4203 74.6634 27.2448 75.3311 27.2448 76.2061V76.4453C27.2448 77.2975 27.4203 77.9538 27.7712 78.4141C28.1221 78.8743 28.6234 79.1045 29.2751 79.1045ZM36.9991 80.1367C35.9965 80.1367 35.1808 79.8086 34.5519 79.1523C33.9229 78.4915 33.6085 77.6097 33.6085 76.5068V76.2744C33.6085 75.5407 33.7475 74.8867 34.0255 74.3125C34.308 73.7337 34.7 73.2826 35.2013 72.959C35.7071 72.6309 36.254 72.4668 36.8419 72.4668C37.8035 72.4668 38.5509 72.7835 39.0841 73.417C39.6173 74.0505 39.8839 74.9574 39.8839 76.1377V76.6641H34.8731C34.8914 77.3932 35.1033 77.9834 35.5089 78.4346C35.919 78.8812 36.4386 79.1045 37.0675 79.1045C37.5141 79.1045 37.8923 79.0133 38.2022 78.8311C38.5121 78.6488 38.7833 78.4072 39.0157 78.1064L39.7882 78.708C39.1684 79.6605 38.2387 80.1367 36.9991 80.1367ZM36.8419 73.5059C36.3315 73.5059 35.9031 73.6927 35.5567 74.0664C35.2104 74.4355 34.9962 74.9551 34.9142 75.625H38.6192V75.5293C38.5828 74.8867 38.4096 74.39 38.0997 74.0391C37.7898 73.6836 37.3705 73.5059 36.8419 73.5059ZM43.021 80H41.7563V69.5H43.021V80ZM46.7186 80H45.4539V69.5H46.7186V80ZM52.1115 80.1367C51.1089 80.1367 50.2932 79.8086 49.6643 79.1523C49.0354 78.4915 48.7209 77.6097 48.7209 76.5068V76.2744C48.7209 75.5407 48.8599 74.8867 49.1379 74.3125C49.4205 73.7337 49.8124 73.2826 50.3137 72.959C50.8195 72.6309 51.3664 72.4668 51.9543 72.4668C52.9159 72.4668 53.6633 72.7835 54.1965 73.417C54.7297 74.0505 54.9963 74.9574 54.9963 76.1377V76.6641H49.9856C50.0038 77.3932 50.2157 77.9834 50.6213 78.4346C51.0315 78.8812 51.551 79.1045 52.1799 79.1045C52.6265 79.1045 53.0048 79.0133 53.3147 78.8311C53.6246 78.6488 53.8957 78.4072 54.1281 78.1064L54.9006 78.708C54.2808 79.6605 53.3511 80.1367 52.1115 80.1367ZM51.9543 73.5059C51.4439 73.5059 51.0155 73.6927 50.6692 74.0664C50.3228 74.4355 50.1086 74.9551 50.0266 75.625H53.7317V75.5293C53.6952 74.8867 53.522 74.39 53.2121 74.0391C52.9022 73.6836 52.483 73.5059 51.9543 73.5059ZM57.9557 72.6035L57.9967 73.5332C58.5618 72.8223 59.3001 72.4668 60.2115 72.4668C61.7747 72.4668 62.5631 73.3486 62.5767 75.1123V80H61.3121V75.1055C61.3075 74.5723 61.1845 74.1781 60.943 73.9229C60.706 73.6676 60.3346 73.54 59.8287 73.54C59.4185 73.54 59.0585 73.6494 58.7486 73.8682C58.4387 74.0869 58.1972 74.374 58.024 74.7295V80H56.7594V72.6035H57.9557ZM66.4931 70.8125V72.6035H67.874V73.5811H66.4931V78.168C66.4931 78.4642 66.5546 78.6875 66.6777 78.8379C66.8007 78.9837 67.0104 79.0566 67.3066 79.0566C67.4524 79.0566 67.653 79.0293 67.9082 78.9746V80C67.5755 80.0911 67.2519 80.1367 66.9375 80.1367C66.3724 80.1367 65.9463 79.9658 65.6591 79.624C65.372 79.2822 65.2285 78.7969 65.2285 78.168V73.5811H63.8818V72.6035H65.2285V70.8125H66.4931ZM77.2653 75.9736H74.9274V80H73.6081V70.0469H76.903C78.0241 70.0469 78.8855 70.3021 79.487 70.8125C80.0931 71.3229 80.3962 72.0658 80.3962 73.041C80.3962 73.6608 80.2276 74.2008 79.8903 74.6611C79.5577 75.1214 79.0928 75.4655 78.4958 75.6934L80.8337 79.918V80H79.4255L77.2653 75.9736ZM74.9274 74.9004H76.944C77.5957 74.9004 78.113 74.7318 78.4958 74.3945C78.8832 74.0573 79.0769 73.6061 79.0769 73.041C79.0769 72.4258 78.8923 71.9541 78.5232 71.626C78.1586 71.2979 77.6299 71.1315 76.9372 71.127H74.9274V74.9004ZM86.9034 80C86.8305 79.8542 86.7712 79.5944 86.7257 79.2207C86.1378 79.8314 85.4359 80.1367 84.6202 80.1367C83.891 80.1367 83.2917 79.9316 82.8223 79.5215C82.3575 79.1068 82.1251 78.5827 82.1251 77.9492C82.1251 77.179 82.4167 76.582 83.0001 76.1582C83.588 75.7298 84.4128 75.5156 85.4747 75.5156H86.7052V74.9346C86.7052 74.4925 86.573 74.1416 86.3087 73.8818C86.0443 73.6175 85.6547 73.4854 85.1397 73.4854C84.6886 73.4854 84.3103 73.5993 84.005 73.8271C83.6996 74.055 83.547 74.3307 83.547 74.6543H82.2755C82.2755 74.2852 82.4053 73.9297 82.6651 73.5879C82.9294 73.2415 83.2849 72.9681 83.7315 72.7676C84.1827 72.5671 84.6772 72.4668 85.2149 72.4668C86.0671 72.4668 86.7348 72.681 87.2178 73.1094C87.7009 73.5332 87.9516 74.1188 87.9698 74.8662V78.2705C87.9698 78.9495 88.0564 79.4896 88.2296 79.8906V80H86.9034ZM84.8048 79.0361C85.2012 79.0361 85.5772 78.9336 85.9327 78.7285C86.2882 78.5234 86.5456 78.2568 86.7052 77.9287V76.4111H85.7139C84.1645 76.4111 83.3897 76.8646 83.3897 77.7715C83.3897 78.168 83.5219 78.4779 83.7862 78.7012C84.0505 78.9245 84.39 79.0361 84.8048 79.0361ZM91.9614 70.8125V72.6035H93.3422V73.5811H91.9614V78.168C91.9614 78.4642 92.0229 78.6875 92.1459 78.8379C92.269 78.9837 92.4786 79.0566 92.7749 79.0566C92.9207 79.0566 93.1212 79.0293 93.3764 78.9746V80C93.0437 80.0911 92.7202 80.1367 92.4057 80.1367C91.8406 80.1367 91.4145 79.9658 91.1274 79.624C90.8403 79.2822 90.6967 78.7969 90.6967 78.168V73.5811H89.3501V72.6035H90.6967V70.8125H91.9614ZM96.493 80H95.2283V72.6035H96.493V80ZM95.1258 70.6416C95.1258 70.4365 95.1873 70.2633 95.3104 70.1221C95.438 69.9808 95.6248 69.9102 95.8709 69.9102C96.117 69.9102 96.3039 69.9808 96.4315 70.1221C96.5591 70.2633 96.6229 70.4365 96.6229 70.6416C96.6229 70.8467 96.5591 71.0176 96.4315 71.1543C96.3039 71.291 96.117 71.3594 95.8709 71.3594C95.6248 71.3594 95.438 71.291 95.3104 71.1543C95.1873 71.0176 95.1258 70.8467 95.1258 70.6416ZM100.013 72.6035L100.054 73.5332C100.619 72.8223 101.357 72.4668 102.269 72.4668C103.832 72.4668 104.62 73.3486 104.634 75.1123V80H103.369V75.1055C103.365 74.5723 103.242 74.1781 103 73.9229C102.763 73.6676 102.392 73.54 101.886 73.54C101.476 73.54 101.116 73.6494 100.806 73.8682C100.496 74.0869 100.254 74.374 100.081 74.7295V80H98.8166V72.6035H100.013ZM106.534 76.2402C106.534 75.0872 106.8 74.1712 107.334 73.4922C107.867 72.8086 108.573 72.4668 109.453 72.4668C110.355 72.4668 111.059 72.7858 111.565 73.4238L111.627 72.6035H112.782V79.8223C112.782 80.7793 112.497 81.5335 111.927 82.085C111.362 82.6364 110.601 82.9121 109.644 82.9121C109.111 82.9121 108.589 82.7982 108.079 82.5703C107.568 82.3424 107.179 82.0303 106.91 81.6338L107.566 80.875C108.108 81.5449 108.771 81.8799 109.555 81.8799C110.17 81.8799 110.649 81.7067 110.991 81.3604C111.337 81.014 111.51 80.5264 111.51 79.8975V79.2617C111.004 79.8451 110.314 80.1367 109.439 80.1367C108.573 80.1367 107.871 79.7881 107.334 79.0908C106.8 78.3936 106.534 77.4434 106.534 76.2402ZM107.805 76.3838C107.805 77.2178 107.976 77.874 108.318 78.3525C108.66 78.8265 109.138 79.0635 109.753 79.0635C110.551 79.0635 111.137 78.7012 111.51 77.9766V74.5996C111.123 73.8932 110.542 73.54 109.767 73.54C109.152 73.54 108.671 73.7793 108.325 74.2578C107.978 74.7363 107.805 75.445 107.805 76.3838Z" fill="black"/>
<path d="M34.6702 10.1738H45.5129V12.1923H41.2437V23.5709H38.9037V12.1923H34.6523L34.6702 10.1738ZM45.0485 13.8714H47.0491V15.747H47.0849C47.1563 15.479 47.2814 15.229 47.46 14.9789C47.6386 14.7288 47.853 14.4966 48.1209 14.3001C48.371 14.0857 48.6568 13.925 48.9783 13.7999C49.282 13.6749 49.6035 13.6034 49.9251 13.6034C50.1752 13.6034 50.3538 13.6213 50.4431 13.6213C50.5324 13.6392 50.6396 13.657 50.7289 13.657V15.7113C50.586 15.6755 50.4252 15.6577 50.2645 15.6398C50.1037 15.6219 49.9608 15.6041 49.8 15.6041C49.4428 15.6041 49.1034 15.6755 48.7818 15.8184C48.4603 15.9613 48.1924 16.1757 47.9423 16.4436C47.7101 16.7294 47.5136 17.0688 47.3707 17.4797C47.2278 17.8905 47.1563 18.3728 47.1563 18.9087V23.5173H45.0128L45.0485 13.8714ZM60.5535 23.5709H58.4457V22.2133H58.4099C58.142 22.7135 57.749 23.0886 57.231 23.3923C56.713 23.696 56.1771 23.8389 55.6412 23.8389C54.3729 23.8389 53.4441 23.5352 52.8724 22.8921C52.3008 22.2669 52.015 21.3023 52.015 20.0341V13.8714H54.1586V19.8197C54.1586 20.6771 54.3193 21.2845 54.6587 21.6239C54.9803 21.9811 55.4447 22.1598 56.0342 22.1598C56.4808 22.1598 56.8559 22.0883 57.1595 21.9454C57.4632 21.8025 57.7133 21.6239 57.8919 21.3917C58.0884 21.1594 58.2135 20.8736 58.3028 20.5521C58.3921 20.2306 58.4278 19.8733 58.4278 19.4982V13.8714H60.5714V23.5709H60.5535ZM64.1975 20.4628C64.269 21.088 64.5012 21.5167 64.912 21.7846C65.3229 22.0347 65.823 22.1598 66.3947 22.1598C66.5911 22.1598 66.8234 22.1419 67.0734 22.1062C67.3235 22.0704 67.5736 22.0169 67.788 21.9275C68.0202 21.8382 68.1988 21.7132 68.3417 21.5346C68.4846 21.3559 68.5561 21.1416 68.5382 20.8736C68.5203 20.6057 68.431 20.3735 68.2345 20.1948C68.038 20.0162 67.8058 19.8912 67.52 19.7661C67.2342 19.659 66.8948 19.5696 66.5197 19.4982C66.1446 19.4267 65.7695 19.3374 65.3765 19.2481C64.9835 19.1588 64.5905 19.0516 64.2154 18.9266C63.8403 18.8015 63.5187 18.6408 63.2151 18.4086C62.9293 18.1942 62.6792 17.9263 62.5184 17.5869C62.3398 17.2475 62.2505 16.8545 62.2505 16.3543C62.2505 15.8184 62.3755 15.3897 62.6434 15.0325C62.8935 14.6752 63.2329 14.3894 63.6259 14.175C64.0189 13.9607 64.4655 13.7999 64.9478 13.7106C65.4301 13.6213 65.8945 13.5856 66.3232 13.5856C66.8234 13.5856 67.3057 13.6392 67.7522 13.7463C68.1988 13.8535 68.6275 14.0143 68.9848 14.2644C69.3599 14.4966 69.6636 14.8181 69.8958 15.1932C70.1459 15.5683 70.2888 16.0328 70.3602 16.5687H68.1274C68.0202 16.0507 67.788 15.7113 67.4307 15.5326C67.0556 15.354 66.6447 15.2647 66.1624 15.2647C66.0195 15.2647 65.823 15.2825 65.6266 15.3004C65.4122 15.3361 65.2336 15.3719 65.0371 15.4433C64.8585 15.5148 64.6977 15.6219 64.5726 15.747C64.4476 15.872 64.3762 16.0506 64.3762 16.265C64.3762 16.5329 64.4655 16.7294 64.6441 16.8902C64.8227 17.051 65.0549 17.176 65.3586 17.3011C65.6444 17.4082 65.9838 17.4975 66.3589 17.569C66.7341 17.6404 67.127 17.7298 67.52 17.8191C67.913 17.9084 68.2881 18.0156 68.6632 18.1406C69.0384 18.2656 69.3778 18.4264 69.6636 18.6586C69.9494 18.873 70.1995 19.1409 70.3781 19.4625C70.5567 19.784 70.646 20.1948 70.646 20.6593C70.646 21.2309 70.521 21.7132 70.253 22.124C69.9851 22.517 69.6457 22.8564 69.2349 23.1065C68.824 23.3566 68.3417 23.5352 67.8416 23.6602C67.3235 23.7674 66.8234 23.8389 66.3232 23.8389C65.7159 23.8389 65.1443 23.7674 64.6262 23.6245C64.1082 23.4816 63.6438 23.2673 63.2686 22.9993C62.8935 22.7135 62.5899 22.3741 62.3755 21.9454C62.1611 21.5346 62.0361 21.0344 62.0182 20.4449H64.1797V20.4628H64.1975ZM71.2534 13.8714H72.8789V10.9419H75.0224V13.8535H76.9516V15.4433H75.0224V20.6236C75.0224 20.8558 75.0403 21.0344 75.0582 21.213C75.076 21.3738 75.1296 21.5167 75.1832 21.6239C75.2547 21.731 75.3618 21.8204 75.4869 21.874C75.6298 21.9275 75.8084 21.9633 76.0585 21.9633C76.2014 21.9633 76.3621 21.9633 76.5051 21.9454C76.648 21.9275 76.8087 21.9097 76.9516 21.874V23.5352C76.7194 23.5709 76.4872 23.5888 76.255 23.6067C76.0228 23.6424 75.8084 23.6424 75.5583 23.6424C74.9867 23.6424 74.5401 23.5888 74.2007 23.4816C73.8613 23.3744 73.5934 23.2137 73.3969 23.0172C73.2004 22.8028 73.0754 22.5527 73.0039 22.2491C72.9325 21.9454 72.8968 21.5703 72.8789 21.1773V15.4612H71.2534V13.8357V13.8714ZM78.4521 13.8714H80.4706V15.1932H80.5063C80.81 14.6216 81.2209 14.2286 81.7567 13.9786C82.2926 13.7285 82.8642 13.6034 83.5073 13.6034C84.2754 13.6034 84.9363 13.7285 85.508 14.0143C86.0796 14.2822 86.544 14.6395 86.9191 15.1218C87.2942 15.5862 87.58 16.14 87.7587 16.7652C87.9373 17.3904 88.0445 18.0692 88.0445 18.7658C88.0445 19.4267 87.9552 20.0519 87.7944 20.6593C87.6158 21.2666 87.3657 21.8204 87.0263 22.2848C86.6869 22.7492 86.2582 23.1244 85.7223 23.4102C85.1864 23.696 84.5791 23.8389 83.8646 23.8389C83.5609 23.8389 83.2394 23.8031 82.9357 23.7496C82.632 23.696 82.3284 23.6067 82.0426 23.4816C81.7567 23.3566 81.4888 23.1958 81.2566 22.9993C81.0065 22.8028 80.81 22.5706 80.6492 22.3205H80.6135V27.1614H78.47V13.8714H78.4521ZM85.9367 18.7301C85.9367 18.3014 85.8831 17.8727 85.758 17.4618C85.6509 17.051 85.4722 16.6937 85.24 16.3722C85.0078 16.0506 84.722 15.8006 84.4005 15.6041C84.0611 15.4076 83.6681 15.3183 83.2394 15.3183C82.3462 15.3183 81.6674 15.6219 81.203 16.2471C80.7564 16.8723 80.5242 17.7119 80.5242 18.7479C80.5242 19.2481 80.5778 19.6947 80.7028 20.1055C80.8279 20.5164 80.9886 20.8736 81.2387 21.1773C81.4709 21.481 81.7567 21.7132 82.0961 21.8918C82.4355 22.0704 82.8107 22.1598 83.2572 22.1598C83.7574 22.1598 84.1504 22.0526 84.4898 21.8561C84.8292 21.6596 85.0971 21.3917 85.3293 21.088C85.5437 20.7665 85.7044 20.4092 85.7938 19.9984C85.8831 19.5696 85.9367 19.1588 85.9367 18.7301ZM89.7057 10.1738H91.8493V12.1923H89.7057V10.1738ZM89.7057 13.8714H91.8493V23.5709H89.7057V13.8714ZM93.7606 10.1738H95.9042V23.5709H93.7606V10.1738ZM102.442 23.8389C101.674 23.8389 100.977 23.7138 100.37 23.4459C99.7625 23.1779 99.2625 22.8386 98.8337 22.392C98.4228 21.9454 98.1013 21.3917 97.8869 20.7665C97.6726 20.1413 97.5475 19.4446 97.5475 18.7122C97.5475 17.9798 97.6547 17.3011 97.8869 16.6759C98.1013 16.0507 98.4228 15.5148 98.8337 15.0503C99.2445 14.6038 99.7625 14.2465 100.37 13.9964C100.977 13.7463 101.674 13.6034 102.442 13.6034C103.21 13.6034 103.907 13.7285 104.514 13.9964C105.121 14.2465 105.622 14.6038 106.05 15.0503C106.461 15.4969 106.782 16.0507 106.997 16.6759C107.211 17.3011 107.336 17.9798 107.336 18.7122C107.336 19.4625 107.229 20.1413 106.997 20.7665C106.765 21.3917 106.461 21.9275 106.05 22.392C105.639 22.8386 105.121 23.1958 104.514 23.4459C103.907 23.696 103.228 23.8389 102.442 23.8389ZM102.442 22.1419C102.906 22.1419 103.335 22.0347 103.675 21.8382C104.032 21.6417 104.3 21.3738 104.532 21.0523C104.764 20.7307 104.925 20.3556 105.032 19.9626C105.139 19.5518 105.193 19.1409 105.193 18.7122C105.193 18.3014 105.139 17.8905 105.032 17.4797C104.925 17.0688 104.764 16.7116 104.532 16.39C104.3 16.0685 104.014 15.8184 103.675 15.6219C103.317 15.4255 102.906 15.3183 102.442 15.3183C101.978 15.3183 101.549 15.4255 101.209 15.6219C100.852 15.8184 100.584 16.0864 100.352 16.39C100.12 16.7116 99.959 17.0688 99.8519 17.4797C99.7447 17.8905 99.6911 18.3014 99.6911 18.7122C99.6911 19.1409 99.7447 19.5518 99.8519 19.9626C99.959 20.3735 100.12 20.7307 100.352 21.0523C100.584 21.3738 100.87 21.6417 101.209 21.8382C101.567 22.0526 101.978 22.1419 102.442 22.1419ZM107.979 13.8714H109.605V10.9419H111.748V13.8535H113.678V15.4433H111.748V20.6236C111.748 20.8558 111.766 21.0344 111.784 21.213C111.802 21.3738 111.856 21.5167 111.909 21.6239C111.981 21.731 112.088 21.8204 112.213 21.874C112.356 21.9275 112.534 21.9633 112.784 21.9633C112.927 21.9633 113.088 21.9633 113.231 21.9454C113.374 21.9275 113.535 21.9097 113.678 21.874V23.5352C113.445 23.5709 113.213 23.5888 112.981 23.6067C112.749 23.6424 112.534 23.6424 112.284 23.6424C111.713 23.6424 111.266 23.5888 110.927 23.4816C110.587 23.3744 110.319 23.2137 110.123 23.0172C109.926 22.8028 109.801 22.5527 109.73 22.2491C109.658 21.9454 109.623 21.5703 109.605 21.1773V15.4612H107.979V13.8357V13.8714Z" fill="black"/>
<path d="M22.3622 10.174H32.169L26.6249 14.1947L26.6221 14.1858L21.0475 18.2345L24.68 17.2914L27.2567 25.2503L19.3256 19.4806L11.3944 25.2503L14.4311 15.9259L6.5 10.1562L16.3067 10.174L19.3434 0.849609L22.3622 10.174Z" fill="#00B67A"/>
<path d="M26.1754 36.9219H6.5V56.5973H26.1754V36.9219Z" fill="#00B67A"/>
<path d="M18.0236 45.1574H23.4889L20.3992 47.3981L20.3976 47.3932L17.2909 49.6495L19.3152 49.1239L20.7513 53.5594L16.3312 50.344L11.9113 53.5594L13.6036 48.3629L9.18359 45.1475L14.6489 45.1574L16.3412 39.9609L18.0236 45.1574Z" fill="white"/>
<path d="M69.9059 36.9219H50.2305V56.5973H69.9059V36.9219Z" fill="#00B67A"/>
<path d="M61.7599 45.1574H67.2252L64.1355 47.3981L64.1339 47.3932L61.0272 49.6495L63.0516 49.1239L64.4876 53.5594L60.0676 50.344L55.6476 53.5594L57.3399 48.3629L52.9199 45.1475L58.3852 45.1574L60.0775 39.9609L61.7599 45.1574Z" fill="white"/>
<path d="M47.9723 36.9219H28.2969V56.5973H47.9723V36.9219Z" fill="#00B67A"/>
<path d="M39.8185 45.1574H45.2838L42.1941 47.3981L42.1925 47.3932L39.0858 49.6495L41.1101 49.1239L42.5462 53.5594L38.1261 50.344L33.7061 53.5594L35.3985 48.3629L30.9785 45.1475L36.4437 45.1574L38.1361 39.9609L39.8185 45.1574Z" fill="white"/>
<path d="M91.7008 36.9219H72.0254V56.5973H91.7008V36.9219Z" fill="#00B67A"/>
<path d="M83.553 45.1574H89.0182L85.9286 47.3981L85.927 47.3932L82.8203 49.6495L84.8446 49.1239L86.2806 53.5594L81.8606 50.344L77.4406 53.5594L79.1329 48.3629L74.7129 45.1475L80.1782 45.1574L81.8706 39.9609L83.553 45.1574Z" fill="white"/>
<path d="M113.357 36.9219H93.6816V56.5973H113.357V36.9219Z" fill="#00B67A"/>
<path d="M105.205 45.1573H110.671L107.581 47.398L107.579 47.3931L104.473 49.6494L106.497 49.1238L107.933 53.5593L103.513 50.3439L99.0929 53.5593L100.785 48.3628L96.3652 45.1474L101.831 45.1573L103.523 39.9608L105.205 45.1573Z" fill="white"/>
</svg>
