<svg width="1920" height="1772" viewBox="0 0 1920 1772" fill="none" xmlns="http://www.w3.org/2000/svg">
<path opacity="0.249674" fill-rule="evenodd" clip-rule="evenodd" d="M316.115 1119.62C222.684 1105.59 144.947 1041.09 118.459 950.402C19.9284 613.05 -174.712 -190.372 206.48 -190.394C519.331 -190.412 1209.23 117.314 1655.68 333.704C1835.6 420.908 1839.73 670.422 1665.59 768.65L966.264 1163.11C917.141 1190.82 860.168 1201.32 804.394 1192.95L316.115 1119.62Z" fill="url(#paint0_linear_101_213)"/>
<circle cx="1546" cy="319" r="110" fill="#EED3F4" fill-opacity="0.09"/>
<circle cx="1744" cy="142" r="67" fill="#EED3F4" fill-opacity="0.09"/>
<circle cx="1614" cy="619" r="123" fill="#9C27B0" fill-opacity="0.03"/>
<circle cx="359" cy="703" r="110" fill="#9C27B0" fill-opacity="0.03"/>
<circle cx="121.5" cy="302.5" r="78.5" fill="#9C27B0" fill-opacity="0.03"/>
<circle cx="629" cy="378" r="110" fill="#9C27B0" fill-opacity="0.03"/>
<defs>
<linearGradient id="paint0_linear_101_213" x1="-671.348" y1="906.845" x2="975.707" y2="1658.78" gradientUnits="userSpaceOnUse">
<stop stop-color="#FFECB3" stop-opacity="0.995138"/>
<stop offset="1" stop-color="#E1BEE7"/>
</linearGradient>
</defs>
</svg>
