<svg width="1857" height="905" viewBox="0 0 1857 905" fill="none" xmlns="http://www.w3.org/2000/svg">
<mask id="mask0_1_1639" style="mask-type:luminance" maskUnits="userSpaceOnUse" x="0" y="-106" width="1920" height="1011">
<path d="M1920 -106H0V905H1920V-106Z" fill="white"/>
</mask>
<g mask="url(#mask0_1_1639)">
<path d="M373.846 -275.562C1076.52 -46.452 1417.06 105.174 1923.5 419.352" stroke="#363B53" stroke-width="2"/>
<path d="M1663.49 314.637C1700.88 331.405 1744.79 314.685 1761.56 277.29C1778.33 239.896 1761.61 195.987 1724.21 179.218C1686.82 162.449 1642.91 179.17 1626.14 216.565C1609.37 253.959 1626.09 297.868 1663.49 314.637Z" fill="#101322" stroke="#363B53" stroke-width="2"/>
<path d="M1721.54 232.939C1728.2 235.924 1736.02 232.947 1739.01 226.289C1741.99 219.631 1739.01 211.813 1732.36 208.828C1725.7 205.842 1717.88 208.819 1714.89 215.477C1711.91 222.135 1714.89 229.953 1721.54 232.939Z" fill="#101322" stroke="#363B53" stroke-width="2"/>
<path d="M1737.94 257.165C1740.42 258.278 1743.33 257.169 1744.44 254.688C1745.55 252.208 1744.45 249.296 1741.97 248.184C1739.49 247.072 1736.57 248.181 1735.46 250.661C1734.35 253.141 1735.46 256.053 1737.94 257.165Z" fill="#101322" stroke="#363B53" stroke-width="2"/>
<path d="M1494.3 170.41C1487.93 194.201 1502.05 218.655 1525.84 225.03C1549.63 231.405 1574.08 217.286 1580.46 193.495C1586.83 169.704 1572.71 145.25 1548.92 138.875C1525.13 132.501 1500.68 146.619 1494.3 170.41Z" fill="#101322" stroke="#363B53" stroke-width="2"/>
<path d="M1548.8 197.28C1547.71 201.343 1550.13 205.52 1554.19 206.608C1558.25 207.697 1562.43 205.286 1563.52 201.223C1564.61 197.159 1562.19 192.983 1558.13 191.894C1554.07 190.805 1549.89 193.217 1548.8 197.28Z" fill="#101322" stroke="#363B53" stroke-width="2"/>
<path d="M1535.89 209.431C1535.52 210.813 1536.34 212.233 1537.72 212.603C1539.1 212.974 1540.52 212.153 1540.89 210.772C1541.26 209.39 1540.44 207.969 1539.06 207.599C1537.68 207.229 1536.26 208.049 1535.89 209.431Z" fill="#101322" stroke="#363B53" stroke-width="2"/>
</g>
</svg>
