<svg width="153" height="37" viewBox="0 0 153 37" fill="none" xmlns="http://www.w3.org/2000/svg">
<path d="M2.752 27V4.952H16.224V8.6H6.848V14.328H14.272V17.976H6.848V27H2.752ZM29.5048 27V25.08C29.0568 25.784 28.3741 26.328 27.4568 26.712C26.5608 27.096 25.6968 27.288 24.8648 27.288C22.8168 27.288 21.0354 26.5733 19.5208 25.144C18.0061 23.6933 17.2488 21.816 17.2488 19.512C17.2488 17.208 17.9954 15.3413 19.4888 13.912C21.0034 12.4613 22.7954 11.736 24.8648 11.736C25.6968 11.736 26.5501 11.9173 27.4248 12.28C28.3208 12.6213 29.0141 13.1653 29.5048 13.912V12.056H33.4088V27H29.5048ZM22.4968 16.632C21.6861 17.3787 21.2808 18.3387 21.2808 19.512C21.2808 20.6853 21.6861 21.656 22.4968 22.424C23.3288 23.1707 24.2994 23.544 25.4088 23.544C26.5181 23.544 27.4781 23.1813 28.2888 22.456C29.0994 21.7093 29.5048 20.728 29.5048 19.512C29.5048 18.2747 29.0888 17.2933 28.2568 16.568C27.4461 15.8427 26.4968 15.48 25.4088 15.48C24.2994 15.48 23.3288 15.864 22.4968 16.632ZM41.449 20.76C40.5317 20.504 39.7743 20.2053 39.177 19.864C38.5797 19.5227 38.1423 19.1387 37.865 18.712C37.609 18.2853 37.4383 17.8907 37.353 17.528C37.2677 17.144 37.225 16.696 37.225 16.184C37.225 14.9893 37.769 13.9547 38.857 13.08C39.945 12.184 41.2357 11.736 42.729 11.736C44.3077 11.736 45.6517 12.12 46.761 12.888C47.8917 13.656 48.489 14.84 48.553 16.44H44.841C44.8197 15.928 44.6063 15.544 44.201 15.288C43.7957 15.032 43.337 14.904 42.825 14.904C41.5663 14.904 40.937 15.3947 40.937 16.376C40.937 16.9307 41.4597 17.3467 42.505 17.624L45.001 18.232C45.8117 18.4453 46.4943 18.744 47.049 19.128C47.6037 19.512 47.9983 19.9387 48.233 20.408C48.489 20.856 48.6597 21.2613 48.745 21.624C48.8517 21.9867 48.905 22.3493 48.905 22.712C48.905 24.1627 48.297 25.2933 47.081 26.104C45.8863 26.9147 44.457 27.32 42.793 27.32C41.2143 27.32 39.817 26.872 38.601 25.976C37.4063 25.0587 36.7983 23.832 36.777 22.296H40.425C40.4677 22.8293 40.7557 23.288 41.289 23.672C41.8437 24.0347 42.473 24.2053 43.177 24.184C43.7317 24.1627 44.1903 24.0133 44.553 23.736C44.937 23.4587 45.129 23.1067 45.129 22.68C45.1503 22.3173 45.0223 22.0293 44.745 21.816C44.489 21.5813 44.073 21.4 43.497 21.272L41.449 20.76ZM57.4843 6.36V12.056H60.6523V15.192H57.4843V27H53.6123V15.192H50.8923V12.056H53.6123V6.36H57.4843ZM62.847 20.568H66.943C66.9857 21.4213 67.3483 22.1573 68.031 22.776C68.7137 23.3733 69.6203 23.672 70.751 23.672C71.8177 23.672 72.6817 23.4267 73.343 22.936C74.0043 22.424 74.3563 21.784 74.399 21.016C74.4417 20.2907 74.207 19.6827 73.695 19.192C73.2043 18.7013 72.4257 18.3067 71.359 18.008L68.639 17.304C64.927 16.216 63.071 14.168 63.071 11.16C63.071 9.26133 63.7857 7.71467 65.215 6.52C66.6657 5.304 68.4257 4.696 70.495 4.696C72.6283 4.696 74.3777 5.304 75.743 6.52C77.1297 7.71467 77.823 9.32533 77.823 11.352H73.727C73.727 10.4773 73.4283 9.784 72.831 9.272C72.255 8.73867 71.455 8.472 70.431 8.472C69.4923 8.472 68.703 8.71733 68.063 9.208C67.4443 9.67733 67.135 10.296 67.135 11.064C67.135 12.28 68.0097 13.1227 69.759 13.592L72.479 14.392C74.7617 15.0107 76.3617 15.9173 77.279 17.112C78.1963 18.3067 78.6017 19.64 78.495 21.112C78.4097 23.032 77.6203 24.5573 76.127 25.688C74.655 26.7973 72.863 27.352 70.751 27.352C68.4257 27.352 66.527 26.7013 65.055 25.4C63.583 24.0987 62.847 22.488 62.847 20.568ZM103.976 12.056L98.6315 27H95.3675L92.0395 16.984L88.8075 27H85.5755L80.0715 12.056H84.2315L87.2715 21.496L90.2795 12.056H93.7355L96.7755 21.496L99.8155 12.056H103.976ZM117.724 27V25.08C117.276 25.784 116.593 26.328 115.676 26.712C114.78 27.096 113.916 27.288 113.084 27.288C111.036 27.288 109.254 26.5733 107.74 25.144C106.225 23.6933 105.468 21.816 105.468 19.512C105.468 17.208 106.214 15.3413 107.708 13.912C109.222 12.4613 111.014 11.736 113.084 11.736C113.916 11.736 114.769 11.9173 115.644 12.28C116.54 12.6213 117.233 13.1653 117.724 13.912V12.056H121.628V27H117.724ZM110.716 16.632C109.905 17.3787 109.5 18.3387 109.5 19.512C109.5 20.6853 109.905 21.656 110.716 22.424C111.548 23.1707 112.518 23.544 113.628 23.544C114.737 23.544 115.697 23.1813 116.508 22.456C117.318 21.7093 117.724 20.728 117.724 19.512C117.724 18.2747 117.308 17.2933 116.476 16.568C115.665 15.8427 114.716 15.48 113.628 15.48C112.518 15.48 111.548 15.864 110.716 16.632ZM129.956 12.056V14.072C130.34 13.3467 130.958 12.7813 131.812 12.376C132.686 11.9493 133.625 11.736 134.628 11.736C136.633 11.736 138.35 12.4613 139.78 13.912C141.209 15.3627 141.924 17.2293 141.924 19.512C141.924 21.8373 141.209 23.7253 139.78 25.176C138.372 26.6053 136.654 27.32 134.628 27.32C133.625 27.32 132.686 27.1173 131.812 26.712C130.958 26.3067 130.34 25.7413 129.956 25.016V34.264H126.052V12.056H129.956ZM130.02 19.576C130.02 20.8133 130.404 21.7947 131.172 22.52C131.961 23.2453 132.9 23.608 133.988 23.608C135.097 23.608 136.025 23.2347 136.772 22.488C137.54 21.7413 137.924 20.7707 137.924 19.576C137.924 18.3813 137.54 17.4 136.772 16.632C136.004 15.864 135.076 15.48 133.988 15.48C132.878 15.48 131.94 15.864 131.172 16.632C130.404 17.3787 130.02 18.36 130.02 19.576Z" fill="white"/>
<path d="M150 15C151.657 15 153 13.6568 153 12C153 10.3432 151.657 9 150 9C148.343 9 147 10.3432 147 12C147 13.6568 148.343 15 150 15Z" fill="white"/>
</svg>
