<svg width="39" height="39" viewBox="0 0 39 39" fill="none" xmlns="http://www.w3.org/2000/svg">
<circle cx="19.5" cy="19.5" r="17" fill="#F3F3F3" stroke="#9C27B0"/>
<path d="M15.9496 19.5C15.9496 17.5397 17.5393 15.9502 19.5007 15.9502C21.4622 15.9502 23.0526 17.5397 23.0526 19.5C23.0526 21.4603 21.4622 23.0498 19.5007 23.0498C17.5393 23.0498 15.9496 21.4603 15.9496 19.5ZM14.0295 19.5C14.0295 22.5199 16.479 24.9679 19.5007 24.9679C22.5225 24.9679 24.9719 22.5199 24.9719 19.5C24.9719 16.4801 22.5225 14.0321 19.5007 14.0321C16.479 14.0321 14.0295 16.4801 14.0295 19.5ZM23.9099 13.8153C23.9098 14.068 23.9847 14.3151 24.1251 14.5253C24.2655 14.7355 24.4651 14.8993 24.6987 14.9962C24.9323 15.093 25.1894 15.1184 25.4374 15.0692C25.6855 15.02 25.9133 14.8983 26.0922 14.7197C26.2711 14.5411 26.393 14.3134 26.4424 14.0656C26.4918 13.8177 26.4666 13.5608 26.3699 13.3273C26.2733 13.0937 26.1095 12.8941 25.8993 12.7536C25.6891 12.6131 25.4419 12.5381 25.189 12.538H25.1885C24.8495 12.5381 24.5245 12.6727 24.2847 12.9122C24.045 13.1517 23.9102 13.4765 23.9099 13.8153ZM15.1961 28.1676C14.1573 28.1204 13.5927 27.9474 13.2175 27.8013C12.72 27.6078 12.3651 27.3773 11.9919 27.0048C11.6187 26.6324 11.3877 26.278 11.1949 25.7808C11.0486 25.406 10.8756 24.8416 10.8284 23.8034C10.7767 22.6809 10.7664 22.3437 10.7664 19.5001C10.7664 16.6564 10.7776 16.3202 10.8284 15.1968C10.8757 14.1586 11.05 13.5952 11.1949 13.2193C11.3886 12.7221 11.6192 12.3674 11.9919 11.9945C12.3646 11.6215 12.7191 11.3907 13.2175 11.198C13.5925 11.0518 14.1573 10.8788 15.1961 10.8316C16.3192 10.78 16.6566 10.7697 19.5007 10.7697C22.3448 10.7697 22.6825 10.7809 23.8066 10.8316C24.8454 10.8789 25.4091 11.0531 25.7852 11.198C26.2827 11.3907 26.6376 11.622 27.0108 11.9945C27.384 12.3669 27.6141 12.7221 27.8078 13.2193C27.9541 13.5941 28.1271 14.1586 28.1743 15.1968C28.226 16.3202 28.2363 16.6564 28.2363 19.5001C28.2363 22.3437 28.226 22.68 28.1743 23.8034C28.127 24.8416 27.9531 25.4058 27.8078 25.7808C27.6141 26.278 27.3835 26.6327 27.0108 27.0048C26.6382 27.3769 26.2827 27.6078 25.7852 27.8013C25.4102 27.9475 24.8454 28.1205 23.8066 28.1676C22.6835 28.2193 22.3461 28.2296 19.5007 28.2296C16.6553 28.2296 16.3189 28.2193 15.1961 28.1676ZM15.1079 8.91593C13.9736 8.96755 13.1985 9.1473 12.5216 9.41053C11.8206 9.68237 11.2272 10.0471 10.6342 10.6388C10.0412 11.2305 9.67721 11.8245 9.40521 12.5251C9.14182 13.202 8.96196 13.9762 8.91031 15.1098C8.8578 16.2452 8.84578 16.6082 8.84578 19.5C8.84578 22.3918 8.8578 22.7548 8.91031 23.8902C8.96196 25.0239 9.14182 25.798 9.40521 26.4749C9.67721 27.175 10.0413 27.7697 10.6342 28.3612C11.2271 28.9527 11.8206 29.3168 12.5216 29.5894C13.1998 29.8527 13.9736 30.0324 15.1079 30.084C16.2446 30.1357 16.6072 30.1485 19.5007 30.1485C22.3943 30.1485 22.7575 30.1365 23.8935 30.084C25.0279 30.0324 25.8025 29.8527 26.4798 29.5894C27.1804 29.3168 27.7742 28.9529 28.3672 28.3612C28.9602 27.7695 29.3235 27.175 29.5962 26.4749C29.8596 25.798 30.0403 25.0238 30.0911 23.8902C30.1428 22.7539 30.1548 22.3918 30.1548 19.5C30.1548 16.6082 30.1428 16.2452 30.0911 15.1098C30.0395 13.9761 29.8596 13.2016 29.5962 12.5251C29.3235 11.8249 28.9593 11.2314 28.3672 10.6388C27.7752 10.0461 27.1804 9.68237 26.4806 9.41053C25.8025 9.1473 25.0278 8.9667 23.8944 8.91593C22.7583 8.8643 22.3951 8.85144 19.5016 8.85144C16.608 8.85144 16.2446 8.86345 15.1079 8.91593Z" fill="#9C27B0" fill-opacity="0.5"/>
<path d="M15.9496 19.5C15.9496 17.5397 17.5393 15.9502 19.5007 15.9502C21.4622 15.9502 23.0526 17.5397 23.0526 19.5C23.0526 21.4603 21.4622 23.0498 19.5007 23.0498C17.5393 23.0498 15.9496 21.4603 15.9496 19.5ZM14.0295 19.5C14.0295 22.5199 16.479 24.9679 19.5007 24.9679C22.5225 24.9679 24.9719 22.5199 24.9719 19.5C24.9719 16.4801 22.5225 14.0321 19.5007 14.0321C16.479 14.0321 14.0295 16.4801 14.0295 19.5ZM23.9099 13.8153C23.9098 14.068 23.9847 14.3151 24.1251 14.5253C24.2655 14.7355 24.4651 14.8993 24.6987 14.9962C24.9323 15.093 25.1894 15.1184 25.4374 15.0692C25.6855 15.02 25.9133 14.8983 26.0922 14.7197C26.2711 14.5411 26.393 14.3134 26.4424 14.0656C26.4918 13.8177 26.4666 13.5608 26.3699 13.3273C26.2733 13.0937 26.1095 12.8941 25.8993 12.7536C25.6891 12.6131 25.4419 12.5381 25.189 12.538H25.1885C24.8495 12.5381 24.5245 12.6727 24.2847 12.9122C24.045 13.1517 23.9102 13.4765 23.9099 13.8153ZM15.1961 28.1676C14.1573 28.1204 13.5927 27.9474 13.2175 27.8013C12.72 27.6078 12.3651 27.3773 11.9919 27.0048C11.6187 26.6324 11.3877 26.278 11.1949 25.7808C11.0486 25.406 10.8756 24.8416 10.8284 23.8034C10.7767 22.6809 10.7664 22.3437 10.7664 19.5001C10.7664 16.6564 10.7776 16.3202 10.8284 15.1968C10.8757 14.1586 11.05 13.5952 11.1949 13.2193C11.3886 12.7221 11.6192 12.3674 11.9919 11.9945C12.3646 11.6215 12.7191 11.3907 13.2175 11.198C13.5925 11.0518 14.1573 10.8788 15.1961 10.8316C16.3192 10.78 16.6566 10.7697 19.5007 10.7697C22.3448 10.7697 22.6825 10.7809 23.8066 10.8316C24.8454 10.8789 25.4091 11.0531 25.7852 11.198C26.2827 11.3907 26.6376 11.622 27.0108 11.9945C27.384 12.3669 27.6141 12.7221 27.8078 13.2193C27.9541 13.5941 28.1271 14.1586 28.1743 15.1968C28.226 16.3202 28.2363 16.6564 28.2363 19.5001C28.2363 22.3437 28.226 22.68 28.1743 23.8034C28.127 24.8416 27.9531 25.4058 27.8078 25.7808C27.6141 26.278 27.3835 26.6327 27.0108 27.0048C26.6382 27.3769 26.2827 27.6078 25.7852 27.8013C25.4102 27.9475 24.8454 28.1205 23.8066 28.1676C22.6835 28.2193 22.3461 28.2296 19.5007 28.2296C16.6553 28.2296 16.3189 28.2193 15.1961 28.1676ZM15.1079 8.91593C13.9736 8.96755 13.1985 9.1473 12.5216 9.41053C11.8206 9.68237 11.2272 10.0471 10.6342 10.6388C10.0412 11.2305 9.67721 11.8245 9.40521 12.5251C9.14182 13.202 8.96196 13.9762 8.91031 15.1098C8.8578 16.2452 8.84578 16.6082 8.84578 19.5C8.84578 22.3918 8.8578 22.7548 8.91031 23.8902C8.96196 25.0239 9.14182 25.798 9.40521 26.4749C9.67721 27.175 10.0413 27.7697 10.6342 28.3612C11.2271 28.9527 11.8206 29.3168 12.5216 29.5894C13.1998 29.8527 13.9736 30.0324 15.1079 30.084C16.2446 30.1357 16.6072 30.1485 19.5007 30.1485C22.3943 30.1485 22.7575 30.1365 23.8935 30.084C25.0279 30.0324 25.8025 29.8527 26.4798 29.5894C27.1804 29.3168 27.7742 28.9529 28.3672 28.3612C28.9602 27.7695 29.3235 27.175 29.5962 26.4749C29.8596 25.798 30.0403 25.0238 30.0911 23.8902C30.1428 22.7539 30.1548 22.3918 30.1548 19.5C30.1548 16.6082 30.1428 16.2452 30.0911 15.1098C30.0395 13.9761 29.8596 13.2016 29.5962 12.5251C29.3235 11.8249 28.9593 11.2314 28.3672 10.6388C27.7752 10.0461 27.1804 9.68237 26.4806 9.41053C25.8025 9.1473 25.0278 8.9667 23.8944 8.91593C22.7583 8.8643 22.3951 8.85144 19.5016 8.85144C16.608 8.85144 16.2446 8.86345 15.1079 8.91593Z" fill="#9C27B0" fill-opacity="0.5"/>
</svg>
