<svg width="39" height="39" viewBox="0 0 39 39" fill="none" xmlns="http://www.w3.org/2000/svg">
<circle cx="19.5" cy="19.5" r="17" fill="#F3F3F3" stroke="url(#paint0_linear_1_500)"/>
<path d="M8.94531 10.4718C8.94531 9.62923 9.6507 8.94531 10.5202 8.94531H28.6802C29.5501 8.94531 30.2552 9.62923 30.2552 10.4718V28.7289C30.2552 29.5718 29.5501 30.2552 28.6802 30.2552H10.5202C9.65079 30.2552 8.94531 29.5718 8.94531 28.7292V10.4715V10.4718Z" fill="#9C27B0" fill-opacity="0.5"/>
<path d="M15.4217 26.7791V17.1853H12.2329V26.7791H15.422H15.4217ZM13.828 15.8756C14.9397 15.8756 15.6319 15.139 15.6319 14.2183C15.6111 13.2767 14.9397 12.5605 13.8491 12.5605C12.7577 12.5605 12.0449 13.2767 12.0449 14.2182C12.0449 15.1389 12.7368 15.8756 13.8071 15.8756H13.8277L13.828 15.8756ZM17.1868 26.7791H20.3753V21.422C20.3753 21.1357 20.3961 20.8486 20.4804 20.6441C20.7108 20.0709 21.2355 19.4777 22.1166 19.4777C23.2701 19.4777 23.7319 20.3574 23.7319 21.6472V26.7791H26.9204V21.2783C26.9204 18.3316 25.3474 16.9604 23.2495 16.9604C21.5295 16.9604 20.7741 17.9217 20.3544 18.5765H20.3756V17.1856H17.1869C17.2285 18.0856 17.1867 26.7794 17.1867 26.7794L17.1868 26.7791Z" fill="white"/>
<defs>
<linearGradient id="paint0_linear_1_500" x1="0.394759" y1="12.3104" x2="38.8771" y2="14.5594" gradientUnits="userSpaceOnUse">
<stop stop-color="#9C27B0"/>
<stop offset="1" stop-color="#7F328C"/>
</linearGradient>
</defs>
</svg>
