<svg width="39" height="39" viewBox="0 0 39 39" fill="none" xmlns="http://www.w3.org/2000/svg">
<circle cx="19.5" cy="19.5" r="17" fill="#F3F3F3" stroke="url(#paint0_linear_1_509)"/>
<path d="M29.3655 13.2662C28.7215 13.5434 28.0446 13.7363 27.3513 13.8404C27.6754 13.7848 28.1523 13.2014 28.3422 12.9652C28.6306 12.609 28.8504 12.2024 28.9904 11.766C28.9904 11.7336 29.0228 11.6873 28.9904 11.6641C28.9741 11.6552 28.9558 11.6505 28.9372 11.6505C28.9186 11.6505 28.9003 11.6552 28.8839 11.6641C28.1311 12.0718 27.3299 12.3829 26.4993 12.5902C26.4703 12.599 26.4395 12.5998 26.4101 12.5925C26.3808 12.5851 26.354 12.5699 26.3326 12.5485C26.2679 12.4715 26.1983 12.3988 26.1242 12.3309C25.7854 12.0273 25.401 11.7789 24.9851 11.5946C24.4237 11.3643 23.8173 11.2646 23.2117 11.3029C22.6241 11.34 22.0504 11.4977 21.5262 11.766C21.0101 12.0489 20.5565 12.4332 20.1927 12.8958C19.81 13.372 19.5337 13.9246 19.3824 14.5164C19.2576 15.0794 19.2434 15.6613 19.3407 16.2297C19.3407 16.3269 19.3407 16.3408 19.2573 16.3269C15.9559 15.8407 13.2471 14.6692 11.0338 12.1549C10.9365 12.0438 10.8856 12.0438 10.8069 12.1549C9.84376 13.6181 10.3114 15.9333 11.5153 17.077C11.6774 17.2298 11.8441 17.378 12.02 17.5169C11.4681 17.4777 10.9296 17.3281 10.4365 17.077C10.3438 17.0168 10.2929 17.0492 10.2883 17.1604C10.2752 17.3144 10.2752 17.4693 10.2883 17.6234C10.3849 18.3618 10.6759 19.0612 11.1315 19.6502C11.5871 20.2393 12.1909 20.6967 12.8813 20.9758C13.0496 21.0479 13.225 21.1022 13.4045 21.1379C12.8935 21.2385 12.3694 21.2541 11.8534 21.1842C11.7422 21.161 11.7006 21.2212 11.7422 21.3277C12.4229 23.1799 13.9 23.7448 14.9835 24.0597C15.1317 24.0828 15.2798 24.0828 15.4465 24.1199C15.4465 24.1199 15.4465 24.1199 15.4188 24.1476C15.0993 24.7311 13.8074 25.1247 13.2147 25.3284C12.1329 25.717 10.9795 25.8655 9.8345 25.7636C9.65392 25.7359 9.61224 25.7405 9.56594 25.7636C9.51964 25.7868 9.56594 25.8377 9.61687 25.884C9.84839 26.0368 10.0799 26.1711 10.3207 26.3008C11.0375 26.6917 11.7953 27.0023 12.5803 27.2268C16.6458 28.3474 21.2206 27.5232 24.2721 24.4903C26.6706 22.1103 27.5133 18.8273 27.5133 15.5397C27.5133 15.4147 27.6661 15.3406 27.7541 15.2758C28.3609 14.803 28.8959 14.2446 29.3423 13.6181C29.4197 13.5247 29.4593 13.4058 29.4535 13.2847C29.4535 13.2153 29.4535 13.2292 29.3655 13.2662Z" fill="#9C27B0" fill-opacity="0.5"/>
<defs>
<linearGradient id="paint0_linear_1_509" x1="0.394759" y1="12.3104" x2="38.8771" y2="14.5594" gradientUnits="userSpaceOnUse">
<stop stop-color="#9C27B0"/>
<stop offset="1" stop-color="#7F328C"/>
</linearGradient>
</defs>
</svg>
