<svg width="39" height="39" viewBox="0 0 39 39" fill="none" xmlns="http://www.w3.org/2000/svg">
<circle cx="19.5" cy="19.5" r="17" fill="#F3F3F3" stroke="url(#paint0_linear_1_495)"/>
<path d="M30.3468 14.1349C30.0922 13.1777 29.3389 12.4225 28.3806 12.1637C26.6477 11.6992 19.6951 11.6992 19.6951 11.6992C19.6951 11.6992 12.746 11.6992 11.0096 12.1637C10.0548 12.4189 9.30151 13.1741 9.04335 14.1349C8.58008 15.8722 8.58008 19.4992 8.58008 19.4992C8.58008 19.4992 8.58008 23.1262 9.04335 24.8635C9.29797 25.8208 10.0512 26.5759 11.0096 26.8348C12.746 27.2992 19.6951 27.2992 19.6951 27.2992C19.6951 27.2992 26.6477 27.2992 28.3806 26.8348C29.3354 26.5795 30.0886 25.8243 30.3468 24.8635C30.8101 23.1262 30.8101 19.4992 30.8101 19.4992C30.8101 19.4992 30.8101 15.8722 30.3468 14.1349Z" fill="#9C27B0" fill-opacity="0.5"/>
<path d="M17.4742 22.8426L23.2492 19.4992L17.4742 16.1559V22.8426Z" fill="white"/>
<defs>
<linearGradient id="paint0_linear_1_495" x1="0.394759" y1="12.3104" x2="38.8771" y2="14.5594" gradientUnits="userSpaceOnUse">
<stop stop-color="#9C27B0"/>
<stop offset="1" stop-color="#7F328C"/>
</linearGradient>
</defs>
</svg>
